<svg width="48" height="48" viewBox="0 0 48 48" fill="none" xmlns="http://www.w3.org/2000/svg">
<path d="M0 9C0 4.02944 4.02944 0 9 0H39C43.9706 0 48 4.02944 48 9V39C48 43.9706 43.9706 48 39 48H9C4.02944 48 0 43.9706 0 39V9Z" fill="white" fill-opacity="0.06"/>
<g clip-path="url(#clip0_198_10615)">
<path d="M40.6638 15.083C40.6877 15.083 40.7116 15.083 40.7362 15.083C40.7523 15.7759 40.7415 16.4971 40.6096 17.179C40.6063 17.1965 40.6031 17.214 40.5998 17.232C40.4603 17.982 40.168 18.7209 39.6326 19.2749C39.6181 19.2905 39.6036 19.3061 39.5887 19.3222C39.2643 19.6625 38.8178 19.8734 38.3469 19.8971C38.1645 19.9073 38.0691 19.9714 37.9303 20.086C37.7209 20.2576 37.4654 20.3181 37.2081 20.3952C39.6262 20.4041 39.6262 20.4041 42.0931 20.4132C42.079 20.5124 42.0654 20.5729 42.0277 20.6616C42.023 20.6727 42.0184 20.6838 42.0136 20.6953C41.9988 20.7304 41.9838 20.7655 41.9688 20.8006C41.9539 20.8356 41.9391 20.8707 41.9243 20.9057C41.9109 20.9376 41.8973 20.9694 41.8837 21.0012C41.8555 21.0696 41.8297 21.139 41.8037 21.2083C32.406 21.2083 23.0084 21.2083 13.326 21.2083C13.2961 21.3812 13.2663 21.5541 13.2355 21.7322C13.2049 21.9047 13.1741 22.0771 13.1428 22.2495C13.1395 22.2675 13.1395 22.2675 13.1361 22.286C13.0355 22.8408 12.9286 23.3944 12.8215 23.9481C12.7364 24.3883 12.6524 24.8286 12.5751 25.2703C12.3144 26.7559 11.9958 28.2647 11.372 29.6463C11.3592 29.6746 11.3592 29.6746 11.3463 29.7034C11.0929 30.2616 10.7763 30.7983 10.3592 31.2506C10.3272 31.2855 10.2966 31.321 10.2661 31.3572C9.99783 31.6619 9.68924 31.9069 9.34559 32.1217C9.33502 32.1284 9.32444 32.1351 9.31355 32.142C8.6146 32.5784 7.82206 32.6894 7.01506 32.6855C6.94534 32.6852 6.87561 32.6852 6.80588 32.6852C6.50626 32.6847 6.20732 32.677 5.908 32.6637C5.90352 32.5844 5.91768 32.5519 5.97049 32.4911C5.97935 32.4814 5.98821 32.4716 5.99734 32.4616C6.00638 32.4513 6.01543 32.441 6.02475 32.4304C6.05193 32.3995 6.07942 32.369 6.10702 32.3385C6.12146 32.3225 6.13589 32.3065 6.15077 32.29C6.17732 32.2607 6.20392 32.2314 6.23056 32.2021C6.27145 32.156 6.31031 32.1087 6.34901 32.0607C6.4155 31.9786 6.4853 31.9007 6.55749 31.8236C6.62943 31.7463 6.69458 31.665 6.75885 31.5811C6.79933 31.5384 6.80958 31.5317 6.86691 31.5254C6.91443 31.5344 6.9597 31.5448 7.00628 31.5573C7.01995 31.5608 7.03362 31.5643 7.0477 31.5679C7.09151 31.5792 7.13526 31.5907 7.17901 31.6022C7.88297 31.7863 8.6193 31.8763 9.27889 31.5015C9.40036 31.4283 9.49917 31.3362 9.59889 31.2363C9.61069 31.2256 9.62249 31.2149 9.63465 31.2039C9.73776 31.1089 9.81331 30.9923 9.88837 30.8749C9.89823 30.8597 9.89823 30.8597 9.9083 30.8442C10.4446 30.0009 10.5327 28.888 10.6967 27.9232C10.7354 27.6956 10.775 27.4682 10.8156 27.2409C10.8185 27.2245 10.8215 27.208 10.8245 27.191C10.8634 26.9734 10.9031 26.7559 10.9434 26.5385C11.0768 25.8181 11.2061 25.0971 11.329 24.3748C11.3971 23.9748 11.4661 23.5752 11.5405 23.1763C11.6127 22.7889 11.6823 22.401 11.752 22.0132C11.7621 21.957 11.7722 21.9009 11.7823 21.8448C11.8204 21.6326 11.8585 21.4204 11.8966 21.2083C11.8747 21.2083 11.8528 21.2083 11.8301 21.2084C11.6238 21.2087 11.4175 21.209 11.2111 21.2092C11.105 21.2093 10.9989 21.2094 10.8928 21.2096C10.7905 21.2098 10.6882 21.2099 10.586 21.21C10.5468 21.21 10.5077 21.2101 10.4686 21.2102C10.414 21.2103 10.3594 21.2103 10.3048 21.2103C10.2885 21.2104 10.2721 21.2104 10.2553 21.2105C10.1437 21.2103 10.1437 21.2103 10.1236 21.1902C10.1215 21.1359 10.1206 21.082 10.1205 21.0276C10.1205 21.0113 10.1204 20.995 10.1203 20.9782C10.1203 20.9435 10.1202 20.9089 10.1202 20.8743C10.1202 20.8212 10.1199 20.7681 10.1195 20.715C10.1195 20.6814 10.1194 20.6479 10.1194 20.6143C10.1193 20.5984 10.1191 20.5824 10.119 20.566C10.1194 20.4535 10.1194 20.4535 10.1598 20.4132C10.1933 20.4088 10.1933 20.4088 10.2349 20.4089C10.2506 20.4088 10.2663 20.4088 10.2825 20.4087C10.2998 20.4089 10.3171 20.409 10.3349 20.4091C10.3531 20.4091 10.3713 20.4091 10.39 20.4091C10.4503 20.4091 10.5106 20.4094 10.5709 20.4097C10.6127 20.4098 10.6544 20.4098 10.6961 20.4099C10.8061 20.41 10.9161 20.4104 11.0261 20.4108C11.1383 20.4111 11.2505 20.4113 11.3626 20.4115C11.5829 20.4119 11.8031 20.4125 12.0233 20.4132C12.0348 20.3702 12.0464 20.3271 12.0579 20.2841C12.0612 20.272 12.0644 20.2599 12.0677 20.2475C12.0861 20.1787 12.1039 20.1099 12.1208 20.0407C12.4022 18.8946 13.0694 17.7626 14.0135 17.0344C14.0394 17.0135 14.0394 17.0135 14.0659 16.9921C14.4551 16.6827 14.9027 16.4427 15.3704 16.2755C15.384 16.2707 15.3976 16.2658 15.4116 16.2607C15.9484 16.0717 16.5223 15.9847 17.0903 15.9828C17.1139 15.9827 17.1375 15.9826 17.1619 15.9825C17.2116 15.9823 17.2613 15.9822 17.3111 15.9821C17.3611 15.982 17.4112 15.9818 17.4613 15.9814C17.7635 15.9789 18.0573 15.9885 18.3557 16.0406C18.3557 16.1069 18.3348 16.1225 18.2901 16.1683C18.2804 16.1779 18.2708 16.1876 18.2608 16.1975C18.2507 16.2077 18.2406 16.218 18.2302 16.2286C18.1967 16.2625 18.163 16.2963 18.1293 16.33C18.106 16.3535 18.0827 16.3769 18.0594 16.4004C18.0105 16.4496 17.9614 16.4987 17.9123 16.5477C17.8493 16.6106 17.7867 16.6738 17.7242 16.7372C17.6762 16.7858 17.6279 16.8341 17.5795 16.8824C17.5563 16.9056 17.5332 16.9289 17.5102 16.9523C17.478 16.985 17.4455 17.0173 17.4129 17.0495C17.4034 17.0593 17.3939 17.0691 17.3842 17.0792C17.357 17.1056 17.357 17.1056 17.3063 17.1428C17.2393 17.14 17.1901 17.1146 17.1314 17.0833C17.1154 17.075 17.0994 17.0666 17.0829 17.058C17.066 17.0491 17.049 17.0402 17.0315 17.031C16.8559 16.9413 16.6826 16.869 16.4922 16.8176C16.4701 16.8115 16.4481 16.8054 16.4254 16.7991C16.1019 16.7245 15.7271 16.7296 15.4066 16.8176C15.3845 16.8235 15.3625 16.8295 15.3397 16.8356C15.0744 16.9155 14.8322 17.0446 14.6286 17.2332C14.6128 17.2474 14.5969 17.2615 14.5806 17.2762C14.0693 17.7567 13.8345 18.4343 13.7178 19.1081C13.7029 19.1943 13.6875 19.2803 13.6721 19.3664C13.6674 19.3929 13.6674 19.3929 13.6626 19.4199C13.6278 19.6158 13.5906 19.8113 13.5532 20.0067C13.547 20.0395 13.5407 20.0723 13.5345 20.1051C13.5287 20.1354 13.5229 20.1656 13.5171 20.1959C13.5145 20.2096 13.5119 20.2233 13.5092 20.2374C13.4978 20.2965 13.4857 20.355 13.4707 20.4132C13.484 20.4132 13.4973 20.4132 13.511 20.4132C14.9722 20.4115 16.4335 20.4098 17.8948 20.4081C17.917 20.408 17.9391 20.408 17.962 20.408C18.4449 20.4074 18.9278 20.4069 19.4108 20.4063C19.6479 20.4061 19.8851 20.4058 20.1222 20.4055C20.1458 20.4055 20.1694 20.4055 20.1937 20.4054C20.8758 20.4047 21.5579 20.4039 22.24 20.4031C24.4341 20.4005 26.6283 20.3979 32.4065 20.3936C32.5899 20.3935 32.7733 20.3934 32.9567 20.3933C34.1629 20.3925 35.3688 20.3974 36.5749 20.4132C36.5749 20.3715 36.5749 20.3298 36.5749 20.2868C36.5862 20.2856 36.5974 20.2844 36.609 20.2832C37.0711 20.2339 37.6133 20.1514 37.968 19.817C37.9963 19.7424 37.9808 19.6763 37.968 19.599C37.8771 18.967 38.1356 18.36 38.5057 17.8601C38.5652 17.7814 38.6277 17.7057 38.6917 17.6307C38.7065 17.6128 38.7213 17.5949 38.7365 17.5765C38.9601 17.3067 39.2071 17.0595 39.4563 16.8136C39.5552 16.7158 39.6516 16.6171 39.7411 16.5104C39.8604 16.37 39.8604 16.37 39.9299 16.3151C40.224 16.0695 40.5593 15.4945 40.6457 15.1191C40.6517 15.1072 40.6577 15.0953 40.6638 15.083Z" fill="white"/>
<path d="M32.4009 22.7551C32.456 22.7553 32.5111 22.7552 32.5662 22.7551C33.0835 22.7545 33.5993 22.7771 34.1137 22.8332C34.1016 23.0053 34.0652 23.1714 34.0295 23.3397C34.0226 23.3723 34.0158 23.4049 34.009 23.4375C33.9905 23.5253 33.972 23.6131 33.9534 23.7009C33.9339 23.7935 33.9144 23.8861 33.895 23.9787C33.8629 24.1311 33.8308 24.2835 33.7987 24.4359C33.759 24.6243 33.7194 24.8128 33.6799 25.0013C33.56 25.5744 33.4391 26.1474 33.3158 26.7199C33.2168 27.1796 33.1192 27.6396 33.0232 28.1C33.0136 28.146 33.004 28.1919 32.9943 28.2379C32.9792 28.3101 32.9642 28.3823 32.9492 28.4545C32.9437 28.4809 32.9381 28.5073 32.9326 28.5337C32.8838 28.7664 32.8408 28.9944 32.8405 29.2328C32.84 29.2509 32.8396 29.269 32.8391 29.2877C32.8386 29.4308 32.8605 29.5664 32.9637 29.6721C33.0831 29.7419 33.1787 29.7519 33.3141 29.7255C33.8216 29.5888 34.2349 29.2115 34.6069 28.8594C34.662 28.8073 34.7182 28.7567 34.7752 28.7066C34.8371 28.6514 34.8914 28.5939 34.9448 28.5307C34.9966 28.4724 35.0514 28.4173 35.1066 28.3621C35.1171 28.3515 35.1277 28.3409 35.1386 28.3299C35.2151 28.2537 35.2151 28.2537 35.2355 28.2537C35.2433 28.5147 35.2167 28.8307 35.0364 29.0307C35.0277 29.0406 35.019 29.0505 35.01 29.0607C34.9367 29.1434 34.8604 29.2228 34.7831 29.3017C34.7722 29.313 34.7613 29.3243 34.7501 29.3359C34.6172 29.4729 34.4817 29.6001 34.3308 29.7173C34.3066 29.7368 34.2824 29.7563 34.2582 29.7758C33.9825 29.9964 33.6928 30.1836 33.3719 30.3316C33.3512 30.3414 33.3305 30.3512 33.3091 30.3613C33.1419 30.437 32.9709 30.4872 32.793 30.5304C32.7657 30.5371 32.7657 30.5371 32.738 30.544C32.4194 30.6096 32.079 30.5948 31.8017 30.4151C31.5701 30.2455 31.4542 29.9754 31.4073 29.6984C31.3503 29.2886 31.436 28.8954 31.5175 28.496C31.5508 28.3322 31.5827 28.1681 31.6146 28.004C31.6177 27.9883 31.6207 27.9726 31.6239 27.9564C31.6425 27.8605 31.6425 27.8605 31.6612 27.7646C31.6829 27.6529 31.7048 27.5411 31.7268 27.4294C31.7356 27.3844 31.7444 27.3395 31.7532 27.2946C31.7588 27.2659 31.7645 27.2373 31.7701 27.2087C31.7779 27.1692 31.7856 27.1298 31.7933 27.0904C31.7977 27.0681 31.8021 27.0458 31.8066 27.0228C31.817 26.9737 31.817 26.9737 31.816 26.9347C31.8113 26.9434 31.8066 26.952 31.8018 26.961C31.683 27.1786 31.5536 27.3872 31.4157 27.5931C31.4082 27.6043 31.4007 27.6155 31.3929 27.6271C31.2166 27.8903 31.0309 28.1463 30.839 28.3983C30.8306 28.4093 30.8223 28.4203 30.8137 28.4316C30.7038 28.5765 30.587 28.7119 30.4616 28.8436C30.4232 28.884 30.3866 28.9253 30.3505 28.9677C30.2572 29.0748 30.1558 29.1743 30.0553 29.2746C30.0205 29.3094 29.9859 29.3443 29.9512 29.3792C29.8245 29.5064 29.6961 29.6248 29.5544 29.7354C29.5315 29.7541 29.5086 29.7728 29.4858 29.7917C28.9345 30.241 28.2646 30.638 27.528 30.5846C27.2157 30.543 26.9552 30.3723 26.7597 30.1322C26.2901 29.4843 26.246 28.6437 26.361 27.8764C26.4116 27.5619 26.4898 27.256 26.5872 26.9528C26.593 26.9348 26.5988 26.9168 26.6047 26.8983C26.9577 25.8193 27.6766 24.7598 28.5774 24.0618C28.6129 24.0322 28.6483 24.0024 28.6837 23.9726C28.787 23.8866 28.8922 23.8035 28.9998 23.7229C29.0195 23.7081 29.0391 23.6933 29.0586 23.6784C30.02 22.9497 31.2224 22.7481 32.4009 22.7551ZM29.3613 24.1858C29.0062 24.5823 28.7527 25.0932 28.5344 25.5751C28.5286 25.5879 28.5228 25.6007 28.5168 25.614C28.1694 26.3819 27.9092 27.2298 27.8356 28.073C27.8338 28.0928 27.8338 28.0928 27.832 28.1129C27.8252 28.1899 27.8205 28.2668 27.8175 28.3441C27.8168 28.3603 27.816 28.3765 27.8152 28.3933C27.8077 28.7067 27.8422 29.0598 28.0647 29.2977C28.1976 29.4213 28.3307 29.4387 28.5076 29.4343C28.7936 29.4092 29.0871 29.2471 29.3192 29.0849C29.3353 29.0741 29.3515 29.0634 29.3681 29.0523C29.5906 28.8962 29.7811 28.6922 29.9582 28.4873C30.0083 28.4299 30.0607 28.3747 30.113 28.3192C30.1353 28.2954 30.1577 28.2715 30.18 28.2476C30.2155 28.2096 30.2511 28.1717 30.2869 28.134C30.3779 28.0359 30.4581 27.9318 30.5376 27.8244C30.6009 27.7391 30.6659 27.6554 30.7327 27.5728C30.8153 27.4705 30.8964 27.3672 30.9761 27.2627C31.0048 27.2254 31.0338 27.1884 31.0631 27.1516C31.1999 26.9789 31.3183 26.7955 31.436 26.6095C31.4511 26.5857 31.4511 26.5857 31.4665 26.5614C31.4968 26.5135 31.527 26.4655 31.557 26.4175C31.5658 26.4036 31.5746 26.3896 31.5836 26.3752C31.6789 26.2217 31.7655 26.0633 31.8521 25.9048C31.8603 25.8899 31.8685 25.875 31.8769 25.8597C32.1082 25.4373 32.2969 25.046 32.3657 24.5674C32.3768 24.4924 32.3919 24.4184 32.4079 24.3443C32.4105 24.3321 32.4131 24.3199 32.4158 24.3073C32.4235 24.2718 32.4313 24.2363 32.439 24.2007C32.4482 24.1583 32.4572 24.1158 32.4661 24.0733C32.4698 24.0558 32.4736 24.0382 32.4774 24.0201C32.4852 23.9728 32.4869 23.929 32.4854 23.8811C31.4876 23.5409 30.1601 23.332 29.3613 24.1858Z" fill="white"/>
<path d="M17.0903 15.9822C17.1139 15.9821 17.1375 15.982 17.1619 15.9819C17.2116 15.9817 17.2613 15.9816 17.3111 15.9816C17.3611 15.9815 17.4112 15.9812 17.4613 15.9808C17.7635 15.9784 18.0573 15.988 18.3557 16.0401C18.3557 16.1063 18.3348 16.1219 18.2901 16.1678C18.2756 16.1822 18.2756 16.1822 18.2608 16.1969C18.2507 16.2072 18.2406 16.2175 18.2302 16.228C18.1967 16.262 18.163 16.2957 18.1293 16.3295C18.106 16.3529 18.0827 16.3764 18.0594 16.3999C18.0105 16.4491 17.9614 16.4981 17.9123 16.5471C17.8493 16.61 17.7867 16.6733 17.7242 16.7367C17.6762 16.7852 17.6279 16.8336 17.5795 16.8818C17.5563 16.9051 17.5332 16.9284 17.5102 16.9518C17.478 16.9844 17.4455 17.0168 17.4129 17.049C17.4034 17.0588 17.3939 17.0686 17.3842 17.0786C17.357 17.105 17.357 17.105 17.3063 17.1423C17.2393 17.1395 17.1901 17.1141 17.1314 17.0828C17.1074 17.0702 17.1074 17.0702 17.0829 17.0574C17.066 17.0485 17.049 17.0397 17.0315 17.0305C16.8559 16.9408 16.6826 16.8685 16.4922 16.817C16.4701 16.8109 16.4481 16.8048 16.4254 16.7986C16.1019 16.7239 15.7271 16.729 15.4066 16.817C15.3845 16.823 15.3625 16.8289 15.3397 16.835C15.0745 16.915 14.8322 17.044 14.6286 17.2326C14.6128 17.2468 14.5969 17.261 14.5806 17.2756C14.0693 17.7561 13.8345 18.4337 13.7178 19.1076C13.706 19.176 13.6938 19.2443 13.6816 19.3127C13.6752 19.3483 13.6689 19.3839 13.6625 19.4195C13.6308 19.5978 13.5977 19.7759 13.5639 19.9538C13.5576 19.987 13.5513 20.0201 13.5451 20.0533C13.5364 20.0995 13.5277 20.1456 13.5189 20.1918C13.5164 20.2053 13.5139 20.2188 13.5113 20.2327C13.4967 20.3082 13.4772 20.3752 13.4526 20.4488C12.9988 20.4488 12.5451 20.4488 12.0776 20.4488C12.0776 20.6933 12.0776 20.9378 12.0776 21.1896C12.4895 21.1896 12.9015 21.1896 13.326 21.1896C13.2844 21.4805 13.2844 21.4805 13.2583 21.6203C13.2553 21.6364 13.2523 21.6526 13.2493 21.6692C13.2395 21.7224 13.2296 21.7756 13.2197 21.8288C13.2125 21.8676 13.2053 21.9065 13.1981 21.9453C13.0848 22.5573 12.9699 23.169 12.8536 23.7805C12.8317 23.8955 12.8098 24.0106 12.788 24.1256C12.7798 24.1687 12.7716 24.2118 12.7634 24.2549C12.7009 24.5835 12.6396 24.9122 12.5813 25.2415C12.3163 26.7366 12.0001 28.2548 11.372 29.6457C11.3592 29.674 11.3592 29.674 11.3463 29.7029C11.0929 30.2611 10.7763 30.7977 10.3592 31.2501C10.3272 31.285 10.2966 31.3205 10.2661 31.3566C9.99783 31.6613 9.68924 31.9064 9.34559 32.1211C9.33502 32.1278 9.32444 32.1345 9.31355 32.1414C8.6146 32.5779 7.82206 32.6889 7.01506 32.685C6.94534 32.6847 6.87561 32.6846 6.80588 32.6846C6.50626 32.6842 6.20732 32.6765 5.908 32.6632C5.90352 32.5839 5.91768 32.5514 5.97049 32.4906C5.97935 32.4808 5.98821 32.4711 5.99734 32.4611C6.00638 32.4508 6.01543 32.4404 6.02475 32.4298C6.05193 32.399 6.07942 32.3684 6.10702 32.338C6.12146 32.322 6.13589 32.306 6.15077 32.2895C6.17732 32.2601 6.20392 32.2309 6.23056 32.2016C6.27145 32.1555 6.31031 32.1081 6.34901 32.0602C6.4155 31.978 6.4853 31.9002 6.55749 31.8231C6.62943 31.7458 6.69458 31.6644 6.75885 31.5806C6.79933 31.5379 6.80958 31.5312 6.86691 31.5249C6.91443 31.5339 6.9597 31.5443 7.00628 31.5568C7.01995 31.5603 7.03362 31.5638 7.0477 31.5674C7.09151 31.5787 7.13526 31.5902 7.17901 31.6017C7.88297 31.7857 8.6193 31.8758 9.27889 31.5009C9.40036 31.4277 9.49917 31.3357 9.59889 31.2358C9.61069 31.2251 9.62249 31.2144 9.63465 31.2033C9.73776 31.1083 9.81331 30.9918 9.88837 30.8744C9.89823 30.8592 9.89823 30.8592 9.9083 30.8436C10.4446 30.0003 10.5327 28.8875 10.6967 27.9226C10.7354 27.695 10.775 27.4676 10.8156 27.2404C10.8186 27.2239 10.8215 27.2075 10.8245 27.1905C10.8634 26.9729 10.9031 26.7554 10.9434 26.5379C11.0768 25.8175 11.2061 25.0965 11.329 24.3742C11.3971 23.9743 11.4661 23.5746 11.5405 23.1758C11.6127 22.7884 11.6823 22.4005 11.752 22.0126C11.7621 21.9565 11.7722 21.9004 11.7823 21.8443C11.8204 21.6321 11.8585 21.4199 11.8966 21.2077C11.8747 21.2078 11.8528 21.2078 11.8301 21.2078C11.6238 21.2082 11.4175 21.2085 11.2111 21.2087C11.105 21.2087 10.9989 21.2089 10.8928 21.2091C10.7905 21.2093 10.6883 21.2094 10.586 21.2094C10.5468 21.2095 10.5077 21.2095 10.4686 21.2096C10.414 21.2098 10.3594 21.2098 10.3048 21.2098C10.2885 21.2098 10.2721 21.2099 10.2553 21.21C10.1437 21.2098 10.1437 21.2098 10.1236 21.1896C10.1215 21.1353 10.1206 21.0814 10.1205 21.0271C10.1205 21.0108 10.1204 20.9944 10.1204 20.9776C10.1203 20.943 10.1202 20.9084 10.1202 20.8738C10.1202 20.8207 10.1199 20.7676 10.1195 20.7145C10.1195 20.6809 10.1194 20.6473 10.1194 20.6138C10.1193 20.5978 10.1191 20.5819 10.119 20.5654C10.1194 20.453 10.1194 20.453 10.1598 20.4127C10.1933 20.4083 10.1933 20.4083 10.2349 20.4084C10.2506 20.4083 10.2663 20.4083 10.2825 20.4082C10.3085 20.4084 10.3085 20.4084 10.3349 20.4086C10.3531 20.4086 10.3713 20.4086 10.39 20.4086C10.4503 20.4086 10.5106 20.4089 10.5709 20.4092C10.6127 20.4092 10.6544 20.4093 10.6961 20.4093C10.8061 20.4095 10.9161 20.4098 11.0261 20.4102C11.1383 20.4106 11.2505 20.4108 11.3626 20.4109C11.5829 20.4113 11.8031 20.4119 12.0233 20.4127C12.0348 20.3696 12.0464 20.3266 12.0579 20.2835C12.0612 20.2715 12.0644 20.2594 12.0677 20.2469C12.0861 20.1782 12.1039 20.1093 12.1208 20.0402C12.4022 18.8941 13.0694 17.7621 14.0135 17.0339C14.0394 17.0129 14.0394 17.0129 14.0659 16.9915C14.4551 16.6822 14.9027 16.4422 15.3704 16.275C15.384 16.2701 15.3976 16.2652 15.4116 16.2602C15.9484 16.0712 16.5223 15.9842 17.0903 15.9822Z" fill="white"/>
<path d="M9.59371 32.1712C9.61158 32.1711 9.62945 32.171 9.64786 32.1709C9.66759 32.171 9.68733 32.1711 9.70766 32.1712C9.72866 32.1711 9.74966 32.1711 9.7713 32.171C9.83005 32.1709 9.88879 32.171 9.94754 32.1712C10.0115 32.1713 10.0755 32.1712 10.1395 32.1711C10.2522 32.171 10.3649 32.171 10.4776 32.1711C10.6464 32.1713 10.8151 32.1713 10.9838 32.1712C11.2713 32.1711 11.5589 32.1712 11.8464 32.1714C12.1379 32.1715 12.4294 32.1716 12.721 32.1716C12.7393 32.1716 12.7577 32.1716 12.7767 32.1716C12.8704 32.1716 12.9642 32.1716 13.0579 32.1716C13.7371 32.1715 14.4164 32.1716 15.0956 32.1718C15.7684 32.1721 16.4413 32.1722 17.1141 32.1722C17.1454 32.1722 17.1454 32.1722 17.1774 32.1722C17.3681 32.1722 17.5588 32.1723 17.7495 32.1723C18.2237 32.1723 18.6978 32.1723 19.1719 32.1724C19.1935 32.1724 19.2151 32.1724 19.2373 32.1724C20.2882 32.1725 21.339 32.1727 22.3899 32.1729C22.7546 32.173 23.1194 32.1731 23.4842 32.1732C23.5181 32.1732 23.5181 32.1732 23.5527 32.1732C24.604 32.1734 25.6552 32.1736 26.7065 32.1737C26.7747 32.1737 26.8429 32.1737 26.9112 32.1737C27.3633 32.1737 27.8155 32.1738 28.2676 32.1738C29.1674 32.1739 30.0671 32.174 30.9668 32.1741C31.0097 32.1741 31.0525 32.1741 31.0954 32.1741C33.0249 32.1744 34.9543 32.1747 36.8838 32.1751C36.9018 32.1751 36.9199 32.1751 36.9385 32.1751C37.8423 32.1753 38.7461 32.1755 39.6499 32.1757C39.5332 32.4247 39.4112 32.6704 39.288 32.9165C28.2724 32.9165 17.2567 32.9165 5.90723 32.9165C5.90723 32.8628 5.90723 32.8091 5.90723 32.7539C5.92647 32.7551 5.94571 32.7564 5.96553 32.7576C6.22084 32.7732 6.47582 32.7763 6.73157 32.7764C6.75342 32.7765 6.77527 32.7765 6.79778 32.7765C7.29662 32.7762 7.78819 32.7504 8.27735 32.6454C8.29472 32.6417 8.31209 32.638 8.32998 32.6342C8.71118 32.5509 9.2387 32.1711 9.59371 32.1712Z" fill="white"/>
<path d="M40.2294 21.8037C40.2051 21.9736 40.1737 22.1414 40.1386 22.3094C40.1332 22.3355 40.1279 22.3615 40.1225 22.3875C40.111 22.4429 40.0995 22.4984 40.088 22.5538C40.0696 22.6422 40.0513 22.7307 40.0331 22.8192C40.03 22.8341 40.0269 22.8491 40.0237 22.8645C40.0175 22.8948 40.0112 22.9251 40.0049 22.9554C39.9955 23.0012 39.986 23.047 39.9765 23.0928C39.919 23.371 39.862 23.6494 39.8054 23.9279C39.7984 23.9625 39.7984 23.9625 39.7912 23.9977C39.7076 24.4087 39.6253 24.8199 39.5431 25.2311C39.4528 25.6825 39.3622 26.1339 39.2705 26.5851C39.268 26.5976 39.2654 26.6101 39.2628 26.623C39.1992 26.936 39.1352 27.2488 39.0707 27.5616C38.9582 28.1076 38.8457 28.6536 38.7379 29.2005C38.7337 29.2217 38.7295 29.2429 38.7252 29.2648C38.7136 29.3237 38.702 29.3826 38.6905 29.4415C38.6872 29.4584 38.6838 29.4753 38.6804 29.4927C38.6216 29.7953 38.5629 30.1877 38.7348 30.4627C38.8097 30.5582 38.8942 30.6015 39.0138 30.6201C39.4952 30.6492 39.9943 30.2865 40.338 29.9888C40.3481 29.98 40.3582 29.9713 40.3686 29.9623C40.4155 29.9218 40.4624 29.8812 40.509 29.8404C40.5746 29.7833 40.6412 29.7281 40.71 29.6748C40.7738 29.6249 40.8263 29.5728 40.8762 29.509C40.8989 29.4829 40.8989 29.4829 40.9531 29.4467C40.9711 29.4467 40.989 29.4467 41.0074 29.4467C41.0097 29.5351 41.0113 29.6235 41.0124 29.712C41.0128 29.742 41.0135 29.7721 41.0142 29.8021C41.0153 29.8454 41.0159 29.8887 41.0163 29.932C41.0167 29.9453 41.0172 29.9587 41.0177 29.9725C41.0177 30.0433 41.0111 30.0747 40.9656 30.1301C40.9415 30.1496 40.9415 30.1496 40.917 30.1695C40.906 30.179 40.8951 30.1886 40.8838 30.1984C40.8737 30.2066 40.8635 30.2149 40.8531 30.2233C40.8415 30.2327 40.83 30.2421 40.818 30.2517C40.8059 30.2615 40.7938 30.2712 40.7813 30.2813C40.7685 30.2916 40.7557 30.3019 40.7425 30.3125C40.6467 30.3896 40.5495 30.4648 40.4516 30.5394C40.3858 30.5897 40.3212 30.6416 40.2566 30.6935C40.2334 30.7119 40.2103 30.7304 40.1871 30.7489C40.1463 30.7814 40.1057 30.8143 40.0654 30.8475C39.8994 30.9809 39.7187 31.0863 39.5338 31.1913C39.4949 31.2133 39.4562 31.2357 39.4176 31.2582C38.8964 31.5506 38.2489 31.7596 37.6498 31.6167C37.4525 31.5535 37.2996 31.4547 37.1537 31.3078C37.1373 31.2925 37.1209 31.2772 37.1039 31.2615C36.8824 31.0218 36.7932 30.7189 36.7769 30.3974C36.7749 30.3501 36.7749 30.3501 36.7637 30.3048C36.7528 30.2194 36.7603 30.139 36.7683 30.0535C36.77 30.0352 36.7717 30.0169 36.7734 29.998C36.7928 29.7986 36.8256 29.6021 36.8608 29.4049C36.8643 29.385 36.8679 29.365 36.8715 29.3445C36.936 28.9779 37.0074 28.6127 37.0803 28.2477C37.1839 27.7287 37.2831 27.2089 37.3821 26.689C37.4149 26.517 37.4477 26.345 37.4805 26.1731C37.4844 26.1525 37.4884 26.1319 37.4924 26.1106C37.5399 25.8621 37.5876 25.6136 37.6365 25.3653C37.6389 25.3531 37.6414 25.341 37.6438 25.3284C37.6666 25.2129 37.6895 25.0974 37.7126 24.982C37.7489 24.8002 37.7828 24.6183 37.8123 24.4353C37.8186 24.3967 37.8255 24.3581 37.8334 24.3198C37.8739 24.1097 37.8535 23.8661 37.7462 23.6797C37.6465 23.5475 37.501 23.5013 37.3425 23.4784C37.1559 23.4566 36.9977 23.4705 36.8145 23.5112C36.7818 23.5183 36.7818 23.5183 36.7484 23.5255C36.5584 23.5677 36.3712 23.6185 36.1843 23.6731C36.1635 23.679 36.1428 23.685 36.1214 23.6912C36.1032 23.6965 36.0851 23.7019 36.0663 23.7074C36.0111 23.7196 35.9617 23.721 35.9053 23.719C35.9022 23.4065 35.9022 23.4065 35.9087 23.2887C35.9093 23.2759 35.91 23.2631 35.9106 23.25C35.9307 23.1921 35.9683 23.1629 36.0139 23.1227C36.0662 23.0991 36.0662 23.0991 36.127 23.0808C36.1444 23.0754 36.1444 23.0754 36.1622 23.0699C36.1885 23.0617 36.2149 23.0537 36.2413 23.0457C36.2886 23.0314 36.3358 23.0165 36.383 23.0015C36.4792 22.9709 36.5756 22.9406 36.6719 22.9103C36.7859 22.8745 36.8999 22.8387 37.0138 22.8028C37.0259 22.799 37.038 22.7952 37.0504 22.7913C37.2468 22.7294 37.4429 22.6669 37.639 22.6042C37.6526 22.5998 37.6661 22.5955 37.6801 22.591C37.7352 22.5734 37.7904 22.5557 37.8455 22.5381C38.3246 22.3848 38.8042 22.2333 39.2852 22.0859C39.5315 22.0103 39.7772 21.9332 40.0217 21.8523C40.0417 21.8457 40.0616 21.8392 40.0822 21.8324C40.1075 21.824 40.1075 21.824 40.1333 21.8154C40.1752 21.8037 40.1752 21.8037 40.2294 21.8037Z" fill="white"/>
<path d="M24.335 22.6576C24.3477 22.6588 24.3605 22.6601 24.3736 22.6613C24.7296 22.6959 25.0407 22.776 25.3742 22.9061C25.3461 23.1042 25.3003 23.2987 25.2562 23.4937C25.2432 23.5511 25.2304 23.6086 25.2175 23.666C25.1735 23.8616 25.1278 24.0568 25.0793 24.2513C25.0747 24.2699 25.0701 24.2886 25.0653 24.3077C25.0589 24.3334 25.0589 24.3334 25.0523 24.3596C25.0485 24.3746 25.0447 24.3897 25.0408 24.4052C25.0304 24.4419 25.0304 24.4419 25.0123 24.478C24.8511 24.478 24.6899 24.478 24.5238 24.478C24.5298 24.4184 24.5358 24.3588 24.5419 24.2974C24.5544 24.0378 24.5556 23.821 24.3795 23.6129C24.1523 23.3751 23.8472 23.2531 23.5199 23.2415C23.4727 23.2411 23.4255 23.2411 23.3783 23.2415C23.3599 23.2416 23.3599 23.2416 23.341 23.2417C22.9785 23.2443 22.6661 23.3299 22.3889 23.5746C22.3732 23.5884 22.3576 23.6022 22.3414 23.6164C22.1303 23.855 22.0791 24.0897 22.0963 24.4014C22.1177 24.6809 22.2659 24.9701 22.4432 25.1827C22.4509 25.192 22.4586 25.2013 22.4666 25.2108C22.5088 25.2614 22.5514 25.3115 22.5944 25.3615C22.6463 25.4221 22.6961 25.4844 22.7457 25.5469C22.7998 25.6143 22.855 25.6808 22.9102 25.7474C22.9889 25.8423 23.0663 25.938 23.142 26.0353C23.2182 26.1333 23.2977 26.2277 23.379 26.3215C23.4433 26.3957 23.5054 26.4713 23.5663 26.5483C23.6042 26.596 23.6427 26.6432 23.6814 26.6903C23.695 26.707 23.7086 26.7236 23.7227 26.7408C23.7496 26.7734 23.7767 26.8058 23.8041 26.838C24.0901 27.1775 24.306 27.5659 24.3248 28.0195C24.3262 28.0461 24.3262 28.0461 24.3276 28.0733C24.3429 28.6249 24.1267 29.1262 23.7533 29.5272C23.5744 29.7151 23.3882 29.8712 23.1669 30.007C23.1515 30.0167 23.1515 30.0167 23.1357 30.0265C22.7506 30.2655 22.3097 30.4049 21.8642 30.4768C21.851 30.479 21.8378 30.4811 21.8242 30.4833C20.9445 30.6176 20.0034 30.4453 19.1865 30.1154C19.1865 30.0233 19.2097 30.0101 19.2725 29.9449C19.2911 29.9253 19.3098 29.9057 19.3284 29.8861C19.3429 29.8711 19.3429 29.8711 19.3576 29.8558C19.3994 29.8117 19.4398 29.7664 19.4805 29.7213C19.6387 29.5486 19.8074 29.3854 19.9738 29.2205C20.019 29.1756 20.0642 29.1306 20.1092 29.0855C20.1234 29.0934 20.1234 29.0934 20.1379 29.1015C20.8214 29.4817 21.6228 29.8955 22.4272 29.6851C22.6848 29.6069 22.9237 29.4663 23.0538 29.2231C23.0613 29.2075 23.0687 29.1919 23.0764 29.1759C23.0839 29.1612 23.0914 29.1466 23.099 29.1315C23.2086 28.8721 23.1787 28.5118 23.0764 28.2544C22.976 28.0224 22.8514 27.8286 22.6782 27.6443C22.6221 27.5843 22.5687 27.522 22.5156 27.4594C22.43 27.3588 22.3419 27.261 22.2522 27.164C22.1772 27.0826 22.1047 26.9991 22.033 26.9147C21.9317 26.7957 21.8289 26.6789 21.7223 26.5646C21.6641 26.5021 21.607 26.4388 21.5512 26.3742C21.5286 26.3484 21.5056 26.323 21.4824 26.2978C21.1522 25.9397 20.9516 25.5335 20.9415 25.0382C20.9408 25.0209 20.9401 25.0036 20.9394 24.9859C20.9255 24.3997 21.2107 23.95 21.6004 23.5399C22.2963 22.8265 23.3663 22.5649 24.335 22.6576Z" fill="white"/>
<path d="M17.5536 22.6495C17.5722 22.6495 17.5722 22.6495 17.5912 22.6495C18.0646 22.6507 18.5749 22.6908 19.0056 22.9058C18.9929 23.0666 18.9561 23.2219 18.921 23.3789C18.9177 23.3936 18.9144 23.4083 18.911 23.4235C18.8937 23.5013 18.8762 23.579 18.8587 23.6567C18.8406 23.7369 18.8229 23.8172 18.8052 23.8975C18.7915 23.9594 18.7776 24.0212 18.7636 24.0831C18.757 24.1126 18.7504 24.1423 18.744 24.1719C18.7349 24.2132 18.7255 24.2544 18.7161 24.2956C18.7135 24.3079 18.7109 24.3201 18.7082 24.3327C18.6955 24.3865 18.6844 24.4192 18.6444 24.4583C18.5958 24.484 18.5603 24.484 18.5055 24.4831C18.4861 24.4829 18.4668 24.4828 18.4468 24.4826C18.4167 24.4819 18.4167 24.4819 18.3859 24.4812C18.3553 24.4808 18.3553 24.4808 18.3241 24.4805C18.2738 24.4798 18.2236 24.4789 18.1733 24.4778C18.1719 24.3956 18.1735 24.3234 18.1914 24.2429C18.2116 23.997 18.1437 23.7818 17.9901 23.5902C17.795 23.3785 17.4826 23.263 17.1995 23.2461C16.77 23.23 16.3481 23.2862 16.0112 23.5774C15.8242 23.7562 15.7305 23.9536 15.7231 24.2148C15.7214 24.5727 15.8444 24.9065 16.0746 25.1825C16.0823 25.1918 16.09 25.2011 16.098 25.2106C16.1402 25.2612 16.1828 25.3113 16.2257 25.3613C16.2776 25.4218 16.3273 25.484 16.3769 25.5465C16.4319 25.615 16.4879 25.6828 16.5438 25.7505C16.5549 25.7639 16.5659 25.7772 16.5773 25.791C16.5989 25.8171 16.6205 25.8433 16.6421 25.8695C16.7064 25.9474 16.7704 26.0257 16.8344 26.104C16.8616 26.1371 16.8887 26.1702 16.9159 26.2034C17.2415 26.6009 17.2415 26.6009 17.2823 26.6508C17.309 26.6833 17.3359 26.7158 17.363 26.748C17.7464 27.2076 18.0026 27.7131 17.9562 28.3264C17.9116 28.7608 17.7226 29.1309 17.4496 29.4647C17.4373 29.4806 17.425 29.4964 17.4123 29.5127C17.3804 29.5513 17.3487 29.5827 17.3105 29.6149C17.2722 29.6474 17.2343 29.6798 17.1977 29.7142C16.9934 29.9048 16.7601 30.0569 16.5061 30.1722C16.475 30.1864 16.4442 30.2011 16.4134 30.2159C15.9237 30.4412 15.3713 30.5168 14.8363 30.5172C14.8234 30.5173 14.8104 30.5173 14.7971 30.5173C14.1042 30.5163 13.4437 30.3647 12.7998 30.1152C12.8233 30.0463 12.8496 30.0055 12.9027 29.956C12.9499 29.9117 12.9934 29.8661 13.0354 29.8169C13.135 29.702 13.2453 29.5971 13.3535 29.4904C13.4532 29.3919 13.5523 29.2939 13.6429 29.1869C13.6682 29.1576 13.6948 29.1304 13.7225 29.1034C13.8108 29.1253 13.8747 29.1516 13.9509 29.2028C14.3232 29.4414 14.7577 29.6035 15.188 29.6996C15.2173 29.7063 15.2173 29.7063 15.2471 29.7131C15.6688 29.7931 16.1043 29.7391 16.4641 29.4985C16.6584 29.3517 16.7496 29.1372 16.7897 28.902C16.84 28.4924 16.6945 28.1296 16.4545 27.8024C16.4024 27.7401 16.3474 27.6809 16.2917 27.6218C16.2637 27.591 16.2358 27.5601 16.208 27.5291C16.1945 27.5142 16.181 27.4992 16.1671 27.4838C16.133 27.4457 16.0992 27.4074 16.0655 27.3688C15.9672 27.2562 15.8669 27.1455 15.7653 27.036C15.6778 26.9416 15.5953 26.8447 15.5145 26.7445C15.4736 26.6956 15.4296 26.6518 15.3836 26.6077C15.3274 26.5495 15.2783 26.4854 15.2276 26.4224C15.1948 26.3831 15.1616 26.3473 15.1247 26.3118C14.7777 25.9732 14.5771 25.5033 14.5672 25.0187C14.5664 24.75 14.6198 24.4677 14.7357 24.2249C14.7494 24.1961 14.7494 24.1961 14.7633 24.1668C14.8346 24.0261 14.9217 23.9046 15.0208 23.7829C15.0421 23.7566 15.0628 23.7299 15.0834 23.7031C15.5701 23.0832 16.365 22.7806 17.1239 22.671C17.1365 22.6691 17.1491 22.6672 17.1621 22.6653C17.2921 22.6483 17.4227 22.6493 17.5536 22.6495Z" fill="white"/>
<path d="M40.6633 15.083C40.6872 15.083 40.7111 15.083 40.7357 15.083C40.7518 15.7759 40.7409 16.4971 40.609 17.179C40.6058 17.1965 40.6026 17.214 40.5993 17.232C40.4597 17.982 40.1675 18.7209 39.632 19.2749C39.6103 19.2983 39.6103 19.2983 39.5881 19.3222C39.2638 19.6625 38.8173 19.8734 38.3463 19.8971C38.164 19.9073 38.0686 19.9714 37.9298 20.086C37.5701 20.3808 37.0437 20.4568 36.5925 20.4313C36.5744 20.4132 36.5744 20.4132 36.5732 20.3489C36.5736 20.3284 36.574 20.3079 36.5744 20.2868C36.5913 20.285 36.5913 20.285 36.6085 20.2832C37.0705 20.2339 37.6128 20.1514 37.9675 19.817C37.9958 19.7424 37.9803 19.6763 37.9675 19.599C37.8766 18.967 38.1351 18.36 38.5052 17.8601C38.5647 17.7814 38.6272 17.7057 38.6912 17.6307C38.706 17.6128 38.7208 17.5949 38.736 17.5765C38.9595 17.3067 39.2066 17.0595 39.4557 16.8136C39.5546 16.7158 39.6511 16.6171 39.7406 16.5104C39.8598 16.37 39.8598 16.37 39.9294 16.3151C40.2234 16.0695 40.5587 15.4945 40.6452 15.1191C40.6512 15.1072 40.6571 15.0953 40.6633 15.083Z" fill="white"/>
<path d="M37.4057 18.6784C37.5722 18.7975 37.6761 18.9462 37.7133 19.1482C37.7337 19.3485 37.6964 19.5307 37.5686 19.6903C37.4338 19.8508 37.2717 19.9317 37.0639 19.9596C36.8692 19.9655 36.6944 19.8915 36.5514 19.7625C36.4348 19.641 36.3477 19.4899 36.3369 19.319C36.3444 19.0713 36.4127 18.9042 36.5916 18.7326C36.8215 18.5463 37.1516 18.5241 37.4057 18.6784Z" fill="white"/>
<path d="M37.8936 19.292C37.9301 19.3103 37.9301 19.3103 37.9301 19.3103L37.8936 19.292Z" fill="white"/>
</g>
<defs>
<clipPath id="clip0_198_10615">
<rect width="36.1851" height="17.8337" fill="white" transform="translate(5.90723 15.083)"/>
</clipPath>
</defs>
</svg>
