<svg width="32" height="32" viewBox="0 0 32 32" fill="none" xmlns="http://www.w3.org/2000/svg">
<path d="M32 16C32 24.8421 24.8421 32 16 32C7.1579 32 0 24.8421 0 16C0 7.1579 7.1579 0 16 0C24.8421 0 32 7.1579 32 16Z" fill="white" fill-opacity="0.1"/>
<path d="M24.3043 17.2866V23.2749H20.8423V17.6843C20.8423 16.2808 20.3511 15.3217 19.0879 15.3217C18.1289 15.3217 17.5675 15.9767 17.3102 16.5849C17.2166 16.8188 17.1932 17.1229 17.1932 17.427V23.2515H13.7312C13.7312 23.2515 13.778 13.7779 13.7312 12.8188H17.1932V14.2925L17.1698 14.3159H17.1932V14.2925C17.661 13.5907 18.4798 12.5615 20.3277 12.5615C22.5967 12.5849 24.3043 14.0586 24.3043 17.2866ZM10.0821 7.78955C8.88912 7.78955 8.11719 8.56148 8.11719 9.59072C8.11719 10.5966 8.86573 11.3919 10.0353 11.3919H10.0587C11.2751 11.3919 12.0236 10.5966 12.0236 9.59072C12.0002 8.56148 11.2751 7.78955 10.0821 7.78955ZM8.32772 23.2749H11.7897V12.8188H8.32772V23.2749Z" fill="white" fill-opacity="0.99"/>
</svg>
