<svg width="48" height="48" viewBox="0 0 48 48" fill="none" xmlns="http://www.w3.org/2000/svg">
<path d="M0 9C0 4.02944 4.02944 0 9 0H39C43.9706 0 48 4.02944 48 9V39C48 43.9706 43.9706 48 39 48H9C4.02944 48 0 43.9706 0 39V9Z" fill="white" fill-opacity="0.06"/>
<path d="M30.3097 24.8974L30.6548 25.001C30.6318 25.0988 30.5973 25.1793 30.5455 25.2426C30.4937 25.3059 30.4362 25.3577 30.3614 25.3864C30.2866 25.421 30.1946 25.4382 30.0795 25.4382C29.9415 25.4382 29.8322 25.421 29.7401 25.3807C29.6538 25.3404 29.579 25.2714 29.5158 25.1678C29.4525 25.07 29.418 24.9377 29.418 24.7824C29.418 24.5753 29.4755 24.4142 29.5848 24.2992C29.6941 24.1841 29.8552 24.1323 30.0565 24.1323C30.2176 24.1323 30.3384 24.1668 30.4305 24.2301C30.5225 24.2934 30.5915 24.3912 30.6318 24.5293L30.2866 24.6041C30.2751 24.5638 30.2636 24.535 30.2464 24.5178C30.2234 24.489 30.2004 24.466 30.1658 24.4487C30.1313 24.4315 30.0968 24.4257 30.0623 24.4257C29.976 24.4257 29.907 24.4602 29.8609 24.535C29.8264 24.5868 29.8092 24.6731 29.8092 24.7824C29.8092 24.9205 29.8322 25.0183 29.8724 25.07C29.9127 25.1218 29.976 25.1506 30.0508 25.1506C30.1256 25.1506 30.1831 25.1276 30.2176 25.0873C30.2636 25.0355 30.2924 24.978 30.3097 24.8974Z" fill="white"/>
<path d="M30.792 24.7823C30.792 24.5752 30.8495 24.4141 30.9646 24.299C31.0796 24.184 31.2407 24.1265 31.4478 24.1265C31.6607 24.1265 31.8217 24.184 31.9368 24.2933C32.0519 24.4084 32.1094 24.5637 32.1094 24.7708C32.1094 24.9204 32.0864 25.0412 32.0346 25.1332C31.9828 25.2253 31.9138 25.3 31.816 25.3518C31.7239 25.4036 31.6031 25.4324 31.4651 25.4324C31.3213 25.4324 31.2062 25.4093 31.1084 25.3633C31.0164 25.3173 30.9416 25.2483 30.8783 25.1447C30.815 25.0412 30.792 24.9319 30.792 24.7823ZM31.1832 24.7823C31.1832 24.9088 31.2062 25.0009 31.2522 25.0584C31.2982 25.1159 31.3615 25.1447 31.4478 25.1447C31.5341 25.1447 31.5974 25.1159 31.6434 25.0642C31.6894 25.0066 31.7124 24.9088 31.7124 24.7708C31.7124 24.65 31.6894 24.5637 31.6377 24.5119C31.5916 24.4544 31.5226 24.4314 31.4421 24.4314C31.3615 24.4314 31.2982 24.4601 31.2522 24.5177C31.2062 24.5637 31.1832 24.6557 31.1832 24.7823Z" fill="white"/>
<path d="M32.3103 24.1494H32.8223L33.0179 24.9203L33.2135 24.1494H33.7255V25.415H33.4034V24.4486L33.156 25.415H32.8684L32.621 24.4486V25.415H32.2988V24.1494H32.3103Z" fill="white"/>
<path d="M33.9785 24.1494H34.6286C34.7724 24.1494 34.876 24.1839 34.945 24.253C35.014 24.322 35.0485 24.414 35.0485 24.5406C35.0485 24.6672 35.0083 24.7707 34.9335 24.8398C34.8587 24.9145 34.7379 24.9491 34.5826 24.9491H34.3697V25.4208H33.9785V24.1494ZM34.3697 24.6902H34.4675C34.5423 24.6902 34.5941 24.6787 34.6286 24.6499C34.6573 24.6211 34.6746 24.5924 34.6746 24.5521C34.6746 24.5118 34.6631 24.4773 34.6343 24.4486C34.6056 24.4198 34.5595 24.4083 34.4848 24.4083H34.3755V24.6902H34.3697Z" fill="white"/>
<path d="M35.2559 24.1494H35.647V25.1044H36.2568V25.415H35.2559V24.1494Z" fill="white"/>
<path d="M36.4531 24.1494H36.8443V25.415H36.4531V24.1494Z" fill="white"/>
<path d="M37.9012 25.2026H37.4583L37.395 25.4097H36.998L37.4755 24.144H37.9012L38.3787 25.4097H37.9703L37.9012 25.2026ZM37.8207 24.9322L37.6826 24.4777L37.5446 24.9322H37.8207Z" fill="white"/>
<path d="M38.5 24.1494H38.8624L39.3399 24.8513V24.1494H39.7081V25.415H39.3399L38.8682 24.7189V25.415H38.5V24.1494Z" fill="white"/>
<path d="M39.8809 24.1494H41.0717V24.4601H40.6747V25.415H40.2836V24.4601H39.8866V24.1494H39.8809Z" fill="white"/>
<path d="M25.6008 26.077L26.7341 25.7203L26.3659 24.9034C26.0955 25.2428 25.8251 25.68 25.6008 26.077ZM25.2153 22.3434L22.9947 17.396L6.7373 18.3164L11.2418 30.6044L19.9112 27.8719C19.359 27.078 19.1576 26.1345 19.7962 25.6743C20.5095 25.1565 21.5853 25.7548 22.2699 26.6005C22.9315 25.4959 24.7896 22.9244 25.2153 22.3434Z" fill="white"/>
<path d="M22.4899 20.9716C23.1687 20.9716 23.721 20.4538 23.721 19.8095C23.721 19.1652 23.1687 18.6475 22.4899 18.6475C21.8111 18.6475 21.2588 19.1652 21.2588 19.8095C21.2588 20.4481 21.8111 20.9716 22.4899 20.9716ZM21.4831 21.4721H23.4966V26.7359H21.4831V21.4721Z" fill="#1F1E1F"/>
<path d="M20.4885 23.0081C20.5057 23.0138 20.5172 23.0081 20.5172 22.9908V21.6562C20.5172 21.6389 20.5057 21.6217 20.4885 21.6102C20.4885 21.6102 20.2238 21.4376 19.4184 21.3915C19.3782 21.3685 18.6706 21.3628 18.4807 21.3915C15.5468 21.6274 15.4375 23.7502 15.4375 23.8422V24.36C15.4375 24.4233 15.4375 26.5921 18.4807 26.7819C18.7799 26.8049 19.3609 26.7819 19.4184 26.7819C20.1203 26.7819 20.6035 26.5691 20.6035 26.5691C20.6208 26.5633 20.6323 26.5461 20.6323 26.5288V25.2804C20.6323 25.2632 20.6208 25.2574 20.6093 25.2689C20.6093 25.2689 20.3907 25.4415 19.4357 25.5393C19.1653 25.5681 19.033 25.5566 18.9352 25.5393C17.5775 25.3092 17.5143 24.3197 17.5143 24.3197C17.5143 24.3025 17.5085 24.2737 17.5085 24.2622V23.8825C17.5085 23.8653 17.5085 23.8365 17.5143 23.825C17.5143 23.825 17.6063 22.7607 18.9352 22.6457H19.4357C20.0167 22.7204 20.4885 23.0081 20.4885 23.0081Z" fill="#1F1E1F"/>
<path d="M9.8457 26.719C9.8457 26.7362 9.85721 26.7477 9.87447 26.7477H11.8362C11.8534 26.7477 11.8649 26.7362 11.8649 26.719V25.1887C11.8649 25.1714 11.8764 25.1599 11.8937 25.1599C11.8937 25.1599 15.029 25.3843 15.029 23.2845C15.029 21.622 13.0615 21.4436 12.4172 21.4724C12.4057 21.4724 9.87447 21.4724 9.87447 21.4724C9.85721 21.4724 9.8457 21.4839 9.8457 21.5012V26.719ZM11.8304 23.9921V22.6172H12.3137C12.3137 22.6172 13.0097 22.646 13.0673 23.1234C13.0788 23.158 13.0788 23.3938 13.0673 23.4053C12.9752 23.9634 12.3712 23.9921 12.3712 23.9921H11.8304Z" fill="#1F1E1F"/>
<path d="M22.5455 29.2761C22.7066 29.2761 22.8331 29.2761 23.0402 29.1841C23.7536 28.8101 26.164 22.925 28.7067 21.1129C28.724 21.1014 28.7412 21.0841 28.7528 21.0669C28.77 21.0439 28.77 21.0208 28.77 21.0208C28.77 21.0208 28.77 20.9 28.3961 20.9C26.1352 20.8368 23.7823 25.5828 22.5455 27.4582C22.5282 27.4812 22.4477 27.4582 22.4477 27.4582C22.4477 27.4582 21.6193 26.4803 20.9002 26.1063C20.8829 26.1006 20.8024 26.0718 20.7161 26.0776C20.6586 26.0776 20.3249 26.1466 20.1696 26.3077C19.9855 26.5033 19.9912 26.6126 19.9912 26.8484C19.9912 26.8657 20.0027 26.9462 20.0257 26.9865C20.2041 27.2972 21.0037 28.4017 21.6653 29.0115C21.7631 29.0863 21.9184 29.2761 22.5455 29.2761Z" fill="#2BBC5D"/>
<path d="M29.375 19.334H31.2562C31.6301 19.334 31.9292 19.3858 32.1536 19.4836C32.3837 19.5871 32.5736 19.7309 32.7174 19.915C32.867 20.1049 32.9763 20.3235 33.0395 20.5708C33.1086 20.8182 33.1431 21.0828 33.1431 21.3647C33.1431 21.8019 33.0913 22.1414 32.9935 22.383C32.8957 22.6246 32.7576 22.8259 32.5793 22.9928C32.401 23.1538 32.2111 23.2631 32.0098 23.3207C31.7337 23.3955 31.4805 23.43 31.2562 23.43H29.375V19.334ZM30.6406 20.2602V22.498H30.9513C31.2159 22.498 31.4057 22.4693 31.515 22.4117C31.6243 22.3542 31.7164 22.2507 31.7797 22.1068C31.843 21.963 31.8775 21.7214 31.8775 21.3935C31.8775 20.9563 31.8084 20.6629 31.6646 20.5018C31.5208 20.3407 31.2907 20.2602 30.957 20.2602H30.6406Z" fill="white"/>
<path d="M33.4951 22.0782L34.7032 22.0034C34.732 22.199 34.7837 22.3485 34.8643 22.4521C34.9966 22.6189 35.1807 22.6995 35.4223 22.6995C35.6006 22.6995 35.7445 22.6592 35.8423 22.5729C35.9401 22.4866 35.9918 22.3888 35.9918 22.2795C35.9918 22.176 35.9458 22.0782 35.8538 21.9919C35.7617 21.9056 35.5431 21.8308 35.2037 21.756C34.6457 21.6294 34.2545 21.4626 34.0129 21.2555C33.7713 21.0484 33.6562 20.7838 33.6562 20.4616C33.6562 20.2488 33.7195 20.0532 33.8403 19.8633C33.9611 19.6735 34.1452 19.5297 34.3926 19.4204C34.6399 19.3111 34.9736 19.2593 35.3993 19.2593C35.9228 19.2593 36.3255 19.3571 36.5959 19.5527C36.872 19.7483 37.0331 20.0589 37.0849 20.4846L35.8883 20.5537C35.8538 20.3696 35.7905 20.2373 35.6869 20.151C35.5834 20.0647 35.4453 20.0244 35.267 20.0244C35.1174 20.0244 35.0081 20.0532 34.9333 20.1164C34.8585 20.1797 34.824 20.2545 34.824 20.3466C34.824 20.4098 34.8528 20.4731 34.9161 20.5249C34.9736 20.5767 35.1174 20.6284 35.3418 20.6745C35.894 20.7953 36.291 20.9161 36.5326 21.0369C36.7742 21.1577 36.9468 21.313 37.0561 21.4914C37.1654 21.6697 37.2172 21.8768 37.2172 22.1012C37.2172 22.3658 37.1424 22.6074 36.9986 22.826C36.8548 23.0504 36.6477 23.2172 36.3888 23.3323C36.1299 23.4473 35.7962 23.5048 35.3993 23.5048C34.7032 23.5048 34.22 23.3725 33.9496 23.1022C33.685 22.8318 33.5354 22.4924 33.4951 22.0782Z" fill="white"/>
<path d="M37.5391 22.0782L38.7472 22.0034C38.7759 22.199 38.8277 22.3485 38.9082 22.4521C39.0405 22.6189 39.2246 22.6995 39.4663 22.6995C39.6446 22.6995 39.7884 22.6592 39.8862 22.5729C39.984 22.4866 40.0358 22.3888 40.0358 22.2795C40.0358 22.176 39.9898 22.0782 39.8977 21.9919C39.8057 21.9056 39.5871 21.8308 39.2476 21.756C38.6896 21.6294 38.2984 21.4626 38.0568 21.2555C37.8209 21.0484 37.7001 20.7838 37.7001 20.4616C37.7001 20.2488 37.7634 20.0532 37.8842 19.8633C38.005 19.6735 38.1891 19.5297 38.4365 19.4204C38.6839 19.3111 39.0175 19.2593 39.4432 19.2593C39.9667 19.2593 40.3694 19.3571 40.6398 19.5527C40.916 19.7483 41.077 20.0589 41.1288 20.4846L39.9322 20.5537C39.8977 20.3696 39.8344 20.2373 39.7309 20.151C39.6273 20.0647 39.4893 20.0244 39.3109 20.0244C39.1614 20.0244 39.0521 20.0532 38.9773 20.1164C38.9025 20.1797 38.868 20.2545 38.868 20.3466C38.868 20.4098 38.8967 20.4731 38.96 20.5249C39.0175 20.5767 39.1614 20.6284 39.3857 20.6745C39.938 20.7953 40.3349 20.9161 40.5765 21.0369C40.8182 21.1577 40.9907 21.313 41.1 21.4914C41.2093 21.6697 41.2611 21.8768 41.2611 22.1012C41.2611 22.3658 41.1863 22.6074 41.0425 22.826C40.8987 23.0504 40.6916 23.2172 40.4327 23.3323C40.1738 23.4473 39.8402 23.5048 39.4432 23.5048C38.7472 23.5048 38.2639 23.3725 37.9935 23.1022C37.7232 22.8318 37.5736 22.4924 37.5391 22.0782Z" fill="white"/>
</svg>
