<svg width="32" height="32" viewBox="0 0 32 32" fill="none" xmlns="http://www.w3.org/2000/svg">
<path d="M16 32C24.8366 32 32 24.8366 32 16C32 7.16344 24.8366 0 16 0C7.16345 0 0 7.16344 0 16C0 24.8366 7.16345 32 16 32Z" fill="white" fill-opacity="0.1"/>
<path d="M24.2806 11.9298C24.1403 10.7368 23.1578 9.82456 21.9415 9.73099C19.9532 9.59064 17.9883 9.52046 16 9.49707C14.0117 9.49707 12.0467 9.56725 10.0584 9.73099C8.86545 9.82456 7.8596 10.7368 7.71925 11.9298C7.39176 14.6433 7.39176 17.3801 7.71925 20.0936C7.8596 21.2865 8.84205 22.1988 10.0584 22.2924C12.0467 22.4327 14.0117 22.5029 16 22.5029C17.9883 22.5029 19.9532 22.4327 21.9415 22.2924C23.1344 22.1988 24.1403 21.2865 24.2806 20.0936C24.6081 17.3801 24.6081 14.6433 24.2806 11.9298ZM18.5497 16.2807L14.4561 18.5263C14.2456 18.6433 13.9883 18.4795 13.9883 18.2456V13.7544C13.9883 13.5205 14.2456 13.3567 14.4561 13.4737L18.5497 15.7193C18.7836 15.8596 18.7836 16.1637 18.5497 16.2807Z" fill="white" fill-opacity="0.99"/>
</svg>
