<svg width="120" height="40" viewBox="0 0 120 40" fill="none" xmlns="http://www.w3.org/2000/svg">
<g clip-path="url(#clip0_194_12233)">
<path d="M8.84157 37.8269C8.84157 37.8269 11.9397 41.8207 16.2208 38.9873C17.3868 35.3428 15.0097 32.9431 14.238 32.4023C13.1621 34.5767 13.8718 37.4101 13.8718 37.4101C11.3877 36.2779 8.83594 37.8269 8.83594 37.8269H8.84157Z" fill="#474649"/>
<path d="M4.07031 31.421C4.07031 31.421 6.04187 35.7528 10.5821 34.091C12.2945 31.0605 10.7792 28.4073 10.0075 27.6074C8.64995 29.3368 8.68375 31.9505 8.70065 32.0631C6.6784 30.5873 4.07031 31.421 4.07031 31.421Z" fill="#474649"/>
<path d="M1.15625 24.5022C1.15625 24.5022 1.88291 28.9072 6.40058 28.5073C8.52986 26.2034 7.93276 23.5277 7.2737 22.418C5.73025 23.6516 5.15569 25.8879 5.13315 26.1132C3.65167 24.3839 1.15625 24.5022 1.15625 24.5022Z" fill="#474649"/>
<path d="M0.0167836 17.4164C0.0167836 17.4164 -0.462022 21.5567 3.69514 22.3622C6.02157 20.8131 6.27506 18.4022 5.86948 16.9883C4.28097 17.7262 3.2614 19.4612 3.1431 19.7766C2.20802 17.9403 0.0167836 17.4164 0.0167836 17.4164Z" fill="#474649"/>
<path d="M0.671693 11.1191C0.671693 11.1191 -0.798522 14.7074 2.72211 16.4649C5.02038 15.5861 5.92166 13.6653 5.87096 12.0148C4.37258 12.3415 3.14458 13.5188 2.8742 13.8793C2.42919 12.1049 0.671693 11.1191 0.671693 11.1191Z" fill="#474649"/>
<path d="M2.98387 5.35742C2.98387 5.35742 0.843327 8.22462 3.58097 10.613C5.67645 10.23 6.95514 8.91748 7.32129 7.13182C6.0088 7.17125 4.7808 7.84158 4.34706 8.20209C4.25693 6.59105 2.98387 5.35742 2.98387 5.35742Z" fill="#474649"/>
<path d="M6.75854 -0.000226366C6.75854 -0.000226366 4.25185 2.12342 6.2065 4.82163C8.0147 4.74277 9.41168 4.05554 10.2116 2.21355C9.11314 2.09525 8.05413 2.3769 7.4514 2.68672C7.58096 1.28973 6.75854 -0.00585938 6.75854 -0.00585938V-0.000226366Z" fill="#474649"/>
</g>
<path d="M28.5547 7.48H31.4947C31.8787 7.48 32.2267 7.544 32.5387 7.672C32.8507 7.792 33.1147 7.96 33.3307 8.176C33.5547 8.392 33.7267 8.644 33.8467 8.932C33.9747 9.212 34.0387 9.512 34.0387 9.832C34.0387 10.216 33.9627 10.544 33.8107 10.816C33.6667 11.08 33.4787 11.3 33.2467 11.476C33.6387 11.636 33.9627 11.884 34.2187 12.22C34.4827 12.548 34.6147 12.976 34.6147 13.504C34.6147 13.856 34.5467 14.184 34.4107 14.488C34.2747 14.792 34.0867 15.056 33.8467 15.28C33.6067 15.504 33.3187 15.68 32.9827 15.808C32.6467 15.936 32.2747 16 31.8667 16H28.5547V7.48ZM31.8307 14.716C32.2867 14.716 32.6347 14.604 32.8747 14.38C33.1227 14.148 33.2467 13.852 33.2467 13.492C33.2467 13.14 33.1227 12.848 32.8747 12.616C32.6347 12.384 32.2867 12.268 31.8307 12.268H29.9587V14.716H31.8307ZM31.4227 11.068C31.8067 11.068 32.1067 10.96 32.3227 10.744C32.5467 10.52 32.6587 10.244 32.6587 9.916C32.6587 9.604 32.5467 9.336 32.3227 9.112C32.1067 8.88 31.8067 8.764 31.4227 8.764H29.9587V11.068H31.4227ZM38.6811 16.12C38.2251 16.12 37.8051 16.044 37.4211 15.892C37.0371 15.74 36.7051 15.528 36.4251 15.256C36.1531 14.976 35.9371 14.644 35.7771 14.26C35.6251 13.876 35.5491 13.456 35.5491 13C35.5491 12.56 35.6251 12.152 35.7771 11.776C35.9371 11.392 36.1531 11.06 36.4251 10.78C36.7051 10.5 37.0371 10.28 37.4211 10.12C37.8051 9.96 38.2251 9.88 38.6811 9.88C39.0731 9.88 39.4451 9.944 39.7971 10.072C40.1491 10.2 40.4571 10.392 40.7211 10.648C40.9851 10.896 41.1931 11.208 41.3451 11.584C41.4971 11.952 41.5731 12.376 41.5731 12.856C41.5731 12.92 41.5731 12.984 41.5731 13.048C41.5731 13.112 41.5691 13.192 41.5611 13.288H36.8451C36.8611 13.536 36.9171 13.76 37.0131 13.96C37.1171 14.16 37.2491 14.332 37.4091 14.476C37.5771 14.62 37.7691 14.732 37.9851 14.812C38.2091 14.884 38.4451 14.92 38.6931 14.92C39.1171 14.92 39.4691 14.836 39.7491 14.668C40.0291 14.492 40.2491 14.272 40.4091 14.008L41.4171 14.728C41.1451 15.16 40.7771 15.5 40.3131 15.748C39.8571 15.996 39.3131 16.12 38.6811 16.12ZM40.2411 12.328C40.1691 11.896 39.9771 11.568 39.6651 11.344C39.3611 11.112 39.0171 10.996 38.6331 10.996C38.4411 10.996 38.2491 11.024 38.0571 11.08C37.8731 11.136 37.7011 11.22 37.5411 11.332C37.3891 11.444 37.2571 11.584 37.1451 11.752C37.0331 11.912 36.9531 12.104 36.9051 12.328H40.2411ZM44.838 16.12C44.302 16.12 43.818 16.016 43.386 15.808C42.962 15.6 42.642 15.28 42.426 14.848L43.398 14.152C43.518 14.416 43.71 14.62 43.974 14.764C44.246 14.908 44.534 14.98 44.838 14.98C45.07 14.98 45.27 14.928 45.438 14.824C45.614 14.712 45.702 14.552 45.702 14.344C45.702 14.168 45.638 14.024 45.51 13.912C45.382 13.8 45.138 13.688 44.778 13.576L44.25 13.432C43.722 13.288 43.326 13.06 43.062 12.748C42.798 12.428 42.67 12.044 42.678 11.596C42.678 11.332 42.734 11.096 42.846 10.888C42.958 10.672 43.11 10.492 43.302 10.348C43.494 10.196 43.718 10.08 43.974 10C44.238 9.92 44.522 9.88 44.826 9.88C45.282 9.88 45.682 9.968 46.026 10.144C46.37 10.312 46.646 10.564 46.854 10.9L45.942 11.596C45.806 11.412 45.642 11.264 45.45 11.152C45.266 11.04 45.05 10.984 44.802 10.984C44.602 10.984 44.418 11.032 44.25 11.128C44.082 11.224 43.998 11.364 43.998 11.548C43.998 11.692 44.042 11.824 44.13 11.944C44.226 12.064 44.422 12.168 44.718 12.256L45.33 12.436C45.858 12.596 46.27 12.816 46.566 13.096C46.862 13.376 47.01 13.764 47.01 14.26C47.01 14.548 46.954 14.808 46.842 15.04C46.73 15.264 46.578 15.46 46.386 15.628C46.194 15.788 45.966 15.912 45.702 16C45.438 16.08 45.15 16.12 44.838 16.12ZM50.9012 16.06C50.6132 16.06 50.3452 16.02 50.0972 15.94C49.8492 15.86 49.6292 15.74 49.4372 15.58C49.2532 15.412 49.1092 15.204 49.0052 14.956C48.9012 14.7 48.8492 14.404 48.8492 14.068V11.176H47.6012V10H48.8492V8.332H50.1692V10H51.8852V11.176H50.1692V13.852C50.1692 14.228 50.2492 14.492 50.4092 14.644C50.5772 14.796 50.8332 14.872 51.1772 14.872C51.3052 14.872 51.4292 14.864 51.5492 14.848C51.6772 14.824 51.7892 14.792 51.8852 14.752V15.928C51.7492 15.968 51.6012 16 51.4412 16.024C51.2892 16.048 51.1092 16.06 50.9012 16.06ZM58.4212 16.12C58.0132 16.12 57.6292 16.04 57.2692 15.88C56.9172 15.712 56.6132 15.488 56.3572 15.208C56.1012 14.92 55.8972 14.588 55.7452 14.212C55.6012 13.836 55.5292 13.432 55.5292 13C55.5292 12.568 55.6012 12.164 55.7452 11.788C55.8972 11.412 56.1012 11.084 56.3572 10.804C56.6132 10.516 56.9172 10.292 57.2692 10.132C57.6292 9.964 58.0132 9.88 58.4212 9.88C58.8532 9.88 59.2372 9.976 59.5732 10.168C59.9172 10.352 60.1732 10.564 60.3412 10.804V7H61.6612V16H60.3412V15.196C60.1732 15.436 59.9172 15.652 59.5732 15.844C59.2372 16.028 58.8532 16.12 58.4212 16.12ZM58.6612 14.92C58.9252 14.92 59.1652 14.872 59.3812 14.776C59.6052 14.672 59.7932 14.536 59.9452 14.368C60.1052 14.192 60.2292 13.988 60.3172 13.756C60.4052 13.524 60.4492 13.272 60.4492 13C60.4492 12.728 60.4052 12.476 60.3172 12.244C60.2292 12.012 60.1052 11.812 59.9452 11.644C59.7932 11.468 59.6052 11.332 59.3812 11.236C59.1652 11.132 58.9252 11.08 58.6612 11.08C58.3972 11.08 58.1532 11.132 57.9292 11.236C57.7132 11.332 57.5252 11.468 57.3652 11.644C57.2132 11.812 57.0932 12.012 57.0052 12.244C56.9172 12.476 56.8732 12.728 56.8732 13C56.8732 13.272 56.9172 13.524 57.0052 13.756C57.0932 13.988 57.2132 14.192 57.3652 14.368C57.5252 14.536 57.7132 14.672 57.9292 14.776C58.1532 14.872 58.3972 14.92 58.6612 14.92ZM64.1095 8.692C63.8695 8.692 63.6615 8.608 63.4855 8.44C63.3095 8.264 63.2215 8.052 63.2215 7.804C63.2215 7.564 63.3095 7.36 63.4855 7.192C63.6615 7.016 63.8695 6.928 64.1095 6.928C64.3575 6.928 64.5655 7.016 64.7335 7.192C64.9015 7.36 64.9855 7.564 64.9855 7.804C64.9855 8.052 64.9015 8.264 64.7335 8.44C64.5655 8.608 64.3575 8.692 64.1095 8.692ZM63.4495 10H64.7695V16H63.4495V10ZM69.2433 14.752C69.4993 14.752 69.7353 14.708 69.9513 14.62C70.1673 14.524 70.3553 14.396 70.5153 14.236C70.6753 14.076 70.7993 13.884 70.8873 13.66C70.9833 13.428 71.0313 13.18 71.0313 12.916C71.0313 12.652 70.9833 12.408 70.8873 12.184C70.7993 11.952 70.6753 11.756 70.5153 11.596C70.3553 11.436 70.1673 11.312 69.9513 11.224C69.7353 11.128 69.4993 11.08 69.2433 11.08C68.9873 11.08 68.7513 11.128 68.5353 11.224C68.3193 11.312 68.1313 11.436 67.9713 11.596C67.8113 11.756 67.6833 11.952 67.5873 12.184C67.4993 12.408 67.4553 12.652 67.4553 12.916C67.4553 13.18 67.4993 13.428 67.5873 13.66C67.6833 13.884 67.8113 14.076 67.9713 14.236C68.1313 14.396 68.3193 14.524 68.5353 14.62C68.7513 14.708 68.9873 14.752 69.2433 14.752ZM69.1233 18.628C68.5313 18.628 67.9873 18.528 67.4913 18.328C67.0033 18.128 66.6113 17.86 66.3153 17.524L67.1193 16.576C67.3753 16.856 67.6673 17.072 67.9953 17.224C68.3313 17.376 68.7033 17.452 69.1113 17.452C69.3593 17.452 69.5913 17.412 69.8073 17.332C70.0313 17.252 70.2233 17.132 70.3833 16.972C70.5513 16.812 70.6833 16.616 70.7793 16.384C70.8753 16.152 70.9233 15.884 70.9233 15.58V15.028C70.7393 15.292 70.4753 15.516 70.1313 15.7C69.7953 15.876 69.4193 15.964 69.0033 15.964C68.5953 15.964 68.2153 15.888 67.8633 15.736C67.5193 15.576 67.2153 15.36 66.9513 15.088C66.6953 14.808 66.4913 14.484 66.3393 14.116C66.1953 13.74 66.1233 13.34 66.1233 12.916C66.1233 12.492 66.1953 12.096 66.3393 11.728C66.4913 11.36 66.6953 11.04 66.9513 10.768C67.2153 10.488 67.5193 10.272 67.8633 10.12C68.2153 9.96 68.5953 9.88 69.0033 9.88C69.4193 9.88 69.7953 9.968 70.1313 10.144C70.4753 10.32 70.7393 10.54 70.9233 10.804V10H72.2433V15.592C72.2433 16.112 72.1633 16.564 72.0033 16.948C71.8433 17.332 71.6233 17.648 71.3433 17.896C71.0713 18.144 70.7433 18.328 70.3593 18.448C69.9753 18.568 69.5633 18.628 69.1233 18.628ZM74.6798 8.692C74.4398 8.692 74.2318 8.608 74.0558 8.44C73.8798 8.264 73.7918 8.052 73.7918 7.804C73.7918 7.564 73.8798 7.36 74.0558 7.192C74.2318 7.016 74.4398 6.928 74.6798 6.928C74.9278 6.928 75.1358 7.016 75.3038 7.192C75.4718 7.36 75.5558 7.564 75.5558 7.804C75.5558 8.052 75.4718 8.264 75.3038 8.44C75.1358 8.608 74.9278 8.692 74.6798 8.692ZM74.0198 10H75.3398V16H74.0198V10ZM79.7176 16.06C79.4296 16.06 79.1616 16.02 78.9136 15.94C78.6656 15.86 78.4456 15.74 78.2536 15.58C78.0696 15.412 77.9256 15.204 77.8216 14.956C77.7176 14.7 77.6656 14.404 77.6656 14.068V11.176H76.4176V10H77.6656V8.332H78.9856V10H80.7016V11.176H78.9856V13.852C78.9856 14.228 79.0656 14.492 79.2256 14.644C79.3936 14.796 79.6496 14.872 79.9936 14.872C80.1216 14.872 80.2456 14.864 80.3656 14.848C80.4936 14.824 80.6056 14.792 80.7016 14.752V15.928C80.5656 15.968 80.4176 16 80.2576 16.024C80.1056 16.048 79.9256 16.06 79.7176 16.06ZM84.3314 16.12C83.9234 16.12 83.5394 16.04 83.1794 15.88C82.8274 15.712 82.5234 15.488 82.2674 15.208C82.0114 14.92 81.8074 14.588 81.6554 14.212C81.5114 13.836 81.4394 13.432 81.4394 13C81.4394 12.568 81.5114 12.164 81.6554 11.788C81.8074 11.412 82.0114 11.084 82.2674 10.804C82.5234 10.516 82.8274 10.292 83.1794 10.132C83.5394 9.964 83.9234 9.88 84.3314 9.88C84.7634 9.88 85.1474 9.976 85.4834 10.168C85.8274 10.352 86.0834 10.564 86.2514 10.804V10H87.5714V16H86.2514V15.196C86.0834 15.436 85.8274 15.652 85.4834 15.844C85.1474 16.028 84.7634 16.12 84.3314 16.12ZM84.5714 14.92C84.8354 14.92 85.0754 14.872 85.2914 14.776C85.5154 14.672 85.7034 14.536 85.8554 14.368C86.0154 14.192 86.1394 13.988 86.2274 13.756C86.3154 13.524 86.3594 13.272 86.3594 13C86.3594 12.728 86.3154 12.476 86.2274 12.244C86.1394 12.012 86.0154 11.812 85.8554 11.644C85.7034 11.468 85.5154 11.332 85.2914 11.236C85.0754 11.132 84.8354 11.08 84.5714 11.08C84.3074 11.08 84.0634 11.132 83.8394 11.236C83.6234 11.332 83.4354 11.468 83.2754 11.644C83.1234 11.812 83.0034 12.012 82.9154 12.244C82.8274 12.476 82.7834 12.728 82.7834 13C82.7834 13.272 82.8274 13.524 82.9154 13.756C83.0034 13.988 83.1234 14.192 83.2754 14.368C83.4354 14.536 83.6234 14.672 83.8394 14.776C84.0634 14.872 84.3074 14.92 84.5714 14.92ZM89.3597 7H90.6797V16H89.3597V7ZM26.3107 24.692C26.0707 24.692 25.8627 24.608 25.6867 24.44C25.5107 24.264 25.4227 24.052 25.4227 23.804C25.4227 23.564 25.5107 23.36 25.6867 23.192C25.8627 23.016 26.0707 22.928 26.3107 22.928C26.5587 22.928 26.7667 23.016 26.9347 23.192C27.1027 23.36 27.1867 23.564 27.1867 23.804C27.1867 24.052 27.1027 24.264 26.9347 24.44C26.7667 24.608 26.5587 24.692 26.3107 24.692ZM25.6507 26H26.9707V32H25.6507V26ZM28.7444 26H30.0644V26.816C30.2484 26.512 30.5004 26.28 30.8204 26.12C31.1404 25.96 31.4964 25.88 31.8884 25.88C32.2324 25.88 32.5444 25.94 32.8244 26.06C33.1124 26.18 33.3564 26.348 33.5564 26.564C33.7564 26.78 33.9084 27.044 34.0124 27.356C34.1244 27.66 34.1804 28.004 34.1804 28.388V32H32.8604V28.604C32.8604 28.124 32.7484 27.752 32.5244 27.488C32.3004 27.216 31.9964 27.08 31.6124 27.08C31.1724 27.08 30.8044 27.248 30.5084 27.584C30.2124 27.912 30.0644 28.4 30.0644 29.048V32H28.7444V26ZM37.7774 32.12C37.2414 32.12 36.7574 32.016 36.3254 31.808C35.9014 31.6 35.5814 31.28 35.3654 30.848L36.3374 30.152C36.4574 30.416 36.6494 30.62 36.9134 30.764C37.1854 30.908 37.4734 30.98 37.7774 30.98C38.0094 30.98 38.2094 30.928 38.3774 30.824C38.5534 30.712 38.6414 30.552 38.6414 30.344C38.6414 30.168 38.5774 30.024 38.4494 29.912C38.3214 29.8 38.0774 29.688 37.7174 29.576L37.1894 29.432C36.6614 29.288 36.2654 29.06 36.0014 28.748C35.7374 28.428 35.6094 28.044 35.6174 27.596C35.6174 27.332 35.6734 27.096 35.7854 26.888C35.8974 26.672 36.0494 26.492 36.2414 26.348C36.4334 26.196 36.6574 26.08 36.9134 26C37.1774 25.92 37.4614 25.88 37.7654 25.88C38.2214 25.88 38.6214 25.968 38.9654 26.144C39.3094 26.312 39.5854 26.564 39.7934 26.9L38.8814 27.596C38.7454 27.412 38.5814 27.264 38.3894 27.152C38.2054 27.04 37.9894 26.984 37.7414 26.984C37.5414 26.984 37.3574 27.032 37.1894 27.128C37.0214 27.224 36.9374 27.364 36.9374 27.548C36.9374 27.692 36.9814 27.824 37.0694 27.944C37.1654 28.064 37.3614 28.168 37.6574 28.256L38.2694 28.436C38.7974 28.596 39.2094 28.816 39.5054 29.096C39.8014 29.376 39.9494 29.764 39.9494 30.26C39.9494 30.548 39.8934 30.808 39.7814 31.04C39.6694 31.264 39.5174 31.46 39.3254 31.628C39.1334 31.788 38.9054 31.912 38.6414 32C38.3774 32.08 38.0894 32.12 37.7774 32.12ZM43.4667 32.12C43.1227 32.12 42.8107 32.06 42.5307 31.94C42.2587 31.82 42.0267 31.652 41.8347 31.436C41.6427 31.212 41.4947 30.944 41.3907 30.632C41.2867 30.32 41.2347 29.972 41.2347 29.588V26H42.5547V29.372C42.5547 29.852 42.6587 30.232 42.8667 30.512C43.0747 30.784 43.3707 30.92 43.7547 30.92C44.1867 30.92 44.5387 30.756 44.8107 30.428C45.0827 30.092 45.2187 29.6 45.2187 28.952V26H46.5387V32H45.2187V31.184C45.0427 31.488 44.8027 31.72 44.4987 31.88C44.1947 32.04 43.8507 32.12 43.4667 32.12ZM48.3148 26H49.6348V27.068C49.6908 26.9 49.7708 26.748 49.8748 26.612C49.9868 26.468 50.1108 26.348 50.2468 26.252C50.3908 26.148 50.5468 26.072 50.7148 26.024C50.8828 25.968 51.0508 25.94 51.2188 25.94C51.4028 25.94 51.5748 25.956 51.7348 25.988V27.344C51.6228 27.304 51.5148 27.276 51.4108 27.26C51.3068 27.244 51.1948 27.236 51.0748 27.236C50.8828 27.236 50.6988 27.276 50.5228 27.356C50.3548 27.436 50.2028 27.552 50.0668 27.704C49.9388 27.856 49.8348 28.048 49.7548 28.28C49.6748 28.512 49.6348 28.776 49.6348 29.072V32H48.3148V26ZM55.3744 32.12C54.9184 32.12 54.4984 32.044 54.1144 31.892C53.7304 31.74 53.3984 31.528 53.1184 31.256C52.8464 30.976 52.6304 30.644 52.4704 30.26C52.3184 29.876 52.2424 29.456 52.2424 29C52.2424 28.56 52.3184 28.152 52.4704 27.776C52.6304 27.392 52.8464 27.06 53.1184 26.78C53.3984 26.5 53.7304 26.28 54.1144 26.12C54.4984 25.96 54.9184 25.88 55.3744 25.88C55.7664 25.88 56.1384 25.944 56.4904 26.072C56.8424 26.2 57.1504 26.392 57.4144 26.648C57.6784 26.896 57.8864 27.208 58.0384 27.584C58.1904 27.952 58.2664 28.376 58.2664 28.856C58.2664 28.92 58.2664 28.984 58.2664 29.048C58.2664 29.112 58.2624 29.192 58.2544 29.288H53.5384C53.5544 29.536 53.6104 29.76 53.7064 29.96C53.8104 30.16 53.9424 30.332 54.1024 30.476C54.2704 30.62 54.4624 30.732 54.6784 30.812C54.9024 30.884 55.1384 30.92 55.3864 30.92C55.8104 30.92 56.1624 30.836 56.4424 30.668C56.7224 30.492 56.9424 30.272 57.1024 30.008L58.1104 30.728C57.8384 31.16 57.4704 31.5 57.0064 31.748C56.5504 31.996 56.0064 32.12 55.3744 32.12ZM56.9344 28.328C56.8624 27.896 56.6704 27.568 56.3584 27.344C56.0544 27.112 55.7104 26.996 55.3264 26.996C55.1344 26.996 54.9424 27.024 54.7504 27.08C54.5664 27.136 54.3944 27.22 54.2344 27.332C54.0824 27.444 53.9504 27.584 53.8384 27.752C53.7264 27.912 53.6464 28.104 53.5984 28.328H56.9344ZM59.6234 26H60.9434V27.068C60.9994 26.9 61.0794 26.748 61.1834 26.612C61.2954 26.468 61.4194 26.348 61.5554 26.252C61.6994 26.148 61.8554 26.072 62.0234 26.024C62.1914 25.968 62.3594 25.94 62.5274 25.94C62.7114 25.94 62.8834 25.956 63.0434 25.988V27.344C62.9314 27.304 62.8234 27.276 62.7194 27.26C62.6154 27.244 62.5034 27.236 62.3834 27.236C62.1914 27.236 62.0074 27.276 61.8314 27.356C61.6634 27.436 61.5114 27.552 61.3754 27.704C61.2474 27.856 61.1434 28.048 61.0634 28.28C60.9834 28.512 60.9434 28.776 60.9434 29.072V32H59.6234V26ZM72.0172 32H66.3772V31.52C66.3772 31.056 66.4652 30.648 66.6412 30.296C66.8172 29.944 67.0372 29.632 67.3012 29.36C67.5732 29.08 67.8732 28.828 68.2012 28.604C68.5372 28.372 68.8612 28.14 69.1732 27.908C69.3892 27.748 69.5852 27.596 69.7612 27.452C69.9372 27.308 70.0852 27.16 70.2052 27.008C70.3332 26.848 70.4292 26.684 70.4932 26.516C70.5652 26.34 70.6012 26.144 70.6012 25.928C70.6012 25.544 70.4812 25.232 70.2412 24.992C70.0012 24.752 69.6692 24.632 69.2452 24.632C68.8132 24.632 68.4492 24.76 68.1532 25.016C67.8652 25.272 67.7172 25.628 67.7092 26.084H66.3772C66.3772 25.676 66.4492 25.304 66.5932 24.968C66.7452 24.624 66.9492 24.332 67.2052 24.092C67.4692 23.852 67.7732 23.668 68.1172 23.54C68.4692 23.404 68.8492 23.336 69.2572 23.336C69.6172 23.336 69.9572 23.392 70.2772 23.504C70.5972 23.608 70.8812 23.768 71.1292 23.984C71.3772 24.192 71.5732 24.456 71.7172 24.776C71.8612 25.096 71.9332 25.468 71.9332 25.892C71.9332 26.228 71.8932 26.532 71.8132 26.804C71.7332 27.076 71.6132 27.328 71.4532 27.56C71.3012 27.792 71.1052 28.016 70.8652 28.232C70.6332 28.44 70.3612 28.656 70.0492 28.88C69.8572 29.024 69.6572 29.164 69.4492 29.3C69.2492 29.436 69.0572 29.576 68.8732 29.72C68.6972 29.864 68.5412 30.016 68.4052 30.176C68.2692 30.336 68.1732 30.512 68.1172 30.704H72.0172V32ZM76.3664 32.12C75.9184 32.12 75.5024 32.04 75.1184 31.88C74.7424 31.72 74.4184 31.496 74.1464 31.208C73.8744 30.912 73.6624 30.564 73.5104 30.164C73.3584 29.764 73.2824 29.324 73.2824 28.844V26.612C73.2824 26.132 73.3584 25.692 73.5104 25.292C73.6624 24.892 73.8744 24.548 74.1464 24.26C74.4184 23.964 74.7424 23.736 75.1184 23.576C75.5024 23.416 75.9184 23.336 76.3664 23.336C76.8224 23.336 77.2384 23.416 77.6144 23.576C77.9904 23.736 78.3144 23.964 78.5864 24.26C78.8664 24.548 79.0824 24.892 79.2344 25.292C79.3864 25.692 79.4624 26.132 79.4624 26.612V28.844C79.4624 29.324 79.3864 29.764 79.2344 30.164C79.0824 30.564 78.8664 30.912 78.5864 31.208C78.3144 31.496 77.9904 31.72 77.6144 31.88C77.2384 32.04 76.8224 32.12 76.3664 32.12ZM76.3664 30.824C76.8944 30.824 77.3224 30.652 77.6504 30.308C77.9784 29.956 78.1424 29.468 78.1424 28.844V26.612C78.1424 25.988 77.9784 25.504 77.6504 25.16C77.3224 24.808 76.8944 24.632 76.3664 24.632C75.8464 24.632 75.4224 24.808 75.0944 25.16C74.7664 25.504 74.6024 25.988 74.6024 26.612V28.844C74.6024 29.468 74.7664 29.956 75.0944 30.308C75.4224 30.652 75.8464 30.824 76.3664 30.824ZM86.3141 32H80.6741V31.52C80.6741 31.056 80.7621 30.648 80.9381 30.296C81.1141 29.944 81.3341 29.632 81.5981 29.36C81.8701 29.08 82.1701 28.828 82.4981 28.604C82.8341 28.372 83.1581 28.14 83.4701 27.908C83.6861 27.748 83.8821 27.596 84.0581 27.452C84.2341 27.308 84.3821 27.16 84.5021 27.008C84.6301 26.848 84.7261 26.684 84.7901 26.516C84.8621 26.34 84.8981 26.144 84.8981 25.928C84.8981 25.544 84.7781 25.232 84.5381 24.992C84.2981 24.752 83.9661 24.632 83.5421 24.632C83.1101 24.632 82.7461 24.76 82.4501 25.016C82.1621 25.272 82.0141 25.628 82.0061 26.084H80.6741C80.6741 25.676 80.7461 25.304 80.8901 24.968C81.0421 24.624 81.2461 24.332 81.5021 24.092C81.7661 23.852 82.0701 23.668 82.4141 23.54C82.7661 23.404 83.1461 23.336 83.5541 23.336C83.9141 23.336 84.2541 23.392 84.5741 23.504C84.8941 23.608 85.1781 23.768 85.4261 23.984C85.6741 24.192 85.8701 24.456 86.0141 24.776C86.1581 25.096 86.2301 25.468 86.2301 25.892C86.2301 26.228 86.1901 26.532 86.1101 26.804C86.0301 27.076 85.9101 27.328 85.7501 27.56C85.5981 27.792 85.4021 28.016 85.1621 28.232C84.9301 28.44 84.6581 28.656 84.3461 28.88C84.1541 29.024 83.9541 29.164 83.7461 29.3C83.5461 29.436 83.3541 29.576 83.1701 29.72C82.9941 29.864 82.8381 30.016 82.7021 30.176C82.5661 30.336 82.4701 30.512 82.4141 30.704H86.3141V32ZM91.4098 29.864H87.0058V28.796L91.5538 23.48H92.7298V28.64H93.8698V29.864H92.7298V32H91.4098V29.864ZM91.4098 28.64V25.448L88.6618 28.64H91.4098Z" fill="black" fill-opacity="0.88"/>
<g clip-path="url(#clip1_194_12233)">
<path d="M110.236 37.8269C110.236 37.8269 107.137 41.8207 102.856 38.9873C101.69 35.3428 104.067 32.9431 104.839 32.4023C105.915 34.5767 105.205 37.4101 105.205 37.4101C107.689 36.2779 110.241 37.8269 110.241 37.8269H110.236Z" fill="#474649"/>
<path d="M115.007 31.421C115.007 31.421 113.035 35.7528 108.495 34.091C106.783 31.0605 108.298 28.4073 109.07 27.6074C110.427 29.3368 110.393 31.9505 110.377 32.0631C112.399 30.5873 115.007 31.421 115.007 31.421Z" fill="#474649"/>
<path d="M117.921 24.5022C117.921 24.5022 117.194 28.9072 112.677 28.5073C110.547 26.2034 111.144 23.5277 111.803 22.418C113.347 23.6516 113.921 25.8879 113.944 26.1132C115.425 24.3839 117.921 24.5022 117.921 24.5022Z" fill="#474649"/>
<path d="M119.06 17.4164C119.06 17.4164 119.539 21.5567 115.382 22.3622C113.056 20.8131 112.802 18.4022 113.208 16.9883C114.796 17.7262 115.816 19.4612 115.934 19.7766C116.869 17.9403 119.06 17.4164 119.06 17.4164Z" fill="#474649"/>
<path d="M118.405 11.1191C118.405 11.1191 119.876 14.7074 116.355 16.4649C114.057 15.5861 113.155 13.6653 113.206 12.0148C114.705 12.3415 115.933 13.5188 116.203 13.8793C116.648 12.1049 118.405 11.1191 118.405 11.1191Z" fill="#474649"/>
<path d="M116.093 5.35742C116.093 5.35742 118.234 8.22462 115.496 10.613C113.401 10.23 112.122 8.91748 111.756 7.13182C113.068 7.17125 114.296 7.84158 114.73 8.20209C114.82 6.59105 116.093 5.35742 116.093 5.35742Z" fill="#474649"/>
<path d="M112.319 -0.000226366C112.319 -0.000226366 114.825 2.12342 112.871 4.82163C111.062 4.74277 109.665 4.05554 108.866 2.21355C109.964 2.09525 111.023 2.3769 111.626 2.68672C111.496 1.28973 112.319 -0.00585938 112.319 -0.00585938V-0.000226366Z" fill="#474649"/>
</g>
<defs>
<clipPath id="clip0_194_12233">
<rect width="16.5385" height="40" fill="white"/>
</clipPath>
<clipPath id="clip1_194_12233">
<rect width="16.5385" height="40" fill="white" transform="matrix(-1 0 0 1 119.077 0)"/>
</clipPath>
</defs>
</svg>
