<svg width="32" height="32" viewBox="0 0 32 32" fill="none" xmlns="http://www.w3.org/2000/svg">
<path d="M16 32C24.8366 32 32 24.8366 32 16C32 7.16344 24.8366 0 16 0C7.16344 0 0 7.16344 0 16C0 24.8366 7.16344 32 16 32Z" fill="white" fill-opacity="0.1"/>
<path d="M16.8655 25.0061V17.0763H19.5322L19.9299 13.9885H16.8655V12.0236C16.8655 11.1347 17.1228 10.5266 18.386 10.5266H20.0234V7.74294C19.2281 7.64937 18.4328 7.62598 17.6375 7.62598C15.2749 7.62598 13.6609 9.07627 13.6609 11.6962V13.9652H11.0176V17.0763H13.6842V25.0061H16.8655Z" fill="white" fill-opacity="0.99"/>
</svg>
