<svg width="32" height="32" viewBox="0 0 32 32" fill="none" xmlns="http://www.w3.org/2000/svg">
<g clip-path="url(#clip0_198_10668)">
<path d="M16.0635 31.936C24.9 31.936 32.0635 24.7726 32.0635 15.936C32.0635 7.09948 24.9 -0.0639648 16.0635 -0.0639648C7.22691 -0.0639648 0.0634766 7.09948 0.0634766 15.936C0.0634766 24.7726 7.22691 31.936 16.0635 31.936Z" fill="white" fill-opacity="0.1"/>
<path d="M15.9996 8.64014C17.9994 8.64014 18.2489 8.6475 19.0334 8.6843C19.8173 8.7211 20.3509 8.84401 20.8204 9.02654C21.3062 9.21348 21.7154 9.46666 22.1246 9.87514C22.4989 10.2431 22.7885 10.6881 22.9732 11.1793C23.155 11.6482 23.2787 12.1825 23.3155 12.9663C23.3501 13.7509 23.3596 14.0004 23.3596 16.0001C23.3596 17.9998 23.3523 18.2494 23.3155 19.0339C23.2787 19.8178 23.155 20.3514 22.9732 20.8209C22.789 21.3124 22.4994 21.7576 22.1246 22.1251C21.7566 22.4993 21.3116 22.7888 20.8204 22.9737C20.3516 23.1555 19.8173 23.2792 19.0334 23.316C18.2489 23.3506 17.9994 23.3601 15.9996 23.3601C13.9999 23.3601 13.7504 23.3528 12.9659 23.316C12.182 23.2792 11.6484 23.1555 11.1788 22.9737C10.6874 22.7893 10.2423 22.4997 9.87466 22.1251C9.50033 21.7573 9.21073 21.3122 9.02605 20.8209C8.84352 20.3521 8.72061 19.8178 8.68381 19.0339C8.64922 18.2494 8.63965 17.9998 8.63965 16.0001C8.63965 14.0004 8.64701 13.7509 8.68381 12.9663C8.72061 12.1818 8.84352 11.6489 9.02605 11.1793C9.21022 10.6878 9.49989 10.2426 9.87466 9.87514C10.2424 9.50069 10.6875 9.21107 11.1788 9.02654C11.6484 8.84401 12.1813 8.7211 12.9659 8.6843C13.7504 8.6497 13.9999 8.64014 15.9996 8.64014ZM15.9996 12.3201C15.0237 12.3201 14.0876 12.7078 13.3975 13.398C12.7074 14.0881 12.3196 15.0241 12.3196 16.0001C12.3196 16.9761 12.7074 17.9122 13.3975 18.6023C14.0876 19.2924 15.0237 19.6801 15.9996 19.6801C16.9756 19.6801 17.9117 19.2924 18.6018 18.6023C19.2919 17.9122 19.6796 16.9761 19.6796 16.0001C19.6796 15.0241 19.2919 14.0881 18.6018 13.398C17.9117 12.7078 16.9756 12.3201 15.9996 12.3201V12.3201ZM20.7836 12.1361C20.7836 11.8921 20.6867 11.6581 20.5142 11.4856C20.3417 11.3131 20.1076 11.2161 19.8636 11.2161C19.6196 11.2161 19.3856 11.3131 19.2131 11.4856C19.0406 11.6581 18.9436 11.8921 18.9436 12.1361C18.9436 12.3801 19.0406 12.6141 19.2131 12.7867C19.3856 12.9592 19.6196 13.0561 19.8636 13.0561C20.1076 13.0561 20.3417 12.9592 20.5142 12.7867C20.6867 12.6141 20.7836 12.3801 20.7836 12.1361ZM15.9996 13.7921C16.5852 13.7921 17.1469 14.0248 17.5609 14.4388C17.975 14.8529 18.2076 15.4145 18.2076 16.0001C18.2076 16.5857 17.975 17.1473 17.5609 17.5614C17.1469 17.9755 16.5852 18.2081 15.9996 18.2081C15.4141 18.2081 14.8524 17.9755 14.4384 17.5614C14.0243 17.1473 13.7916 16.5857 13.7916 16.0001C13.7916 15.4145 14.0243 14.8529 14.4384 14.4388C14.8524 14.0248 15.4141 13.7921 15.9996 13.7921V13.7921Z" fill="white" fill-opacity="0.99"/>
</g>
<defs>
<clipPath id="clip0_198_10668">
<rect width="32" height="32" fill="white"/>
</clipPath>
</defs>
</svg>
