<svg width="48" height="48" viewBox="0 0 48 48" fill="none" xmlns="http://www.w3.org/2000/svg">
<path d="M0 9C0 4.02944 4.02944 0 9 0H39C43.9706 0 48 4.02944 48 9V39C48 43.9706 43.9706 48 39 48H9C4.02944 48 0 43.9706 0 39V9Z" fill="white" fill-opacity="0.06"/>
<g clip-path="url(#clip0_198_10627)">
<path d="M24.0016 13.9484C24.9738 13.9484 25.7619 13.1657 25.7619 12.2003C25.7619 11.2348 24.9738 10.4521 24.0016 10.4521C23.0294 10.4521 22.2412 11.2348 22.2412 12.2003C22.2412 13.1657 23.0294 13.9484 24.0016 13.9484Z" fill="white"/>
<path d="M32.8038 26.71H15.2002V30.0969H32.8038V26.71Z" fill="white"/>
<path d="M25.7619 14.5166H22.2412V26.0324H25.7619V14.5166Z" fill="white"/>
<path d="M20.1788 14.5166L15.2002 26.0324H20.1788H21.5375V14.5166H20.1788Z" fill="white"/>
<path d="M27.8245 14.5166L32.8031 26.0324H27.8245H26.4658V14.5166H27.8245Z" fill="white"/>
<path d="M28.1453 33.2095H30.3105V37.5403H28.1629V36.8493C28.0309 37.0684 27.8372 37.2368 27.5908 37.3633C27.3443 37.4897 27.0803 37.5486 26.7898 37.5486C26.2441 37.5486 25.804 37.338 25.4431 36.9083C25.0911 36.4786 24.915 35.9394 24.915 35.2737C24.915 34.844 24.9943 34.4566 25.1615 34.1027C25.3287 33.7573 25.5576 33.4791 25.848 33.277C26.1385 33.0747 26.4642 32.9736 26.825 32.9736C27.1067 32.9736 27.3707 33.0326 27.5996 33.1589C27.8284 33.2853 28.0133 33.4538 28.1453 33.6898V33.2095ZM27.6348 34.6081C27.4588 34.6081 27.3179 34.6672 27.2035 34.7934C27.0891 34.9199 27.0363 35.0716 27.0363 35.2654C27.0363 35.4507 27.0891 35.6023 27.2035 35.7118C27.3179 35.8215 27.4588 35.8804 27.6436 35.8804C27.8196 35.8804 27.9693 35.8215 28.0749 35.7034C28.1805 35.5855 28.2333 35.4338 28.2333 35.2401C28.2333 35.0547 28.1805 34.903 28.0661 34.7851C27.9517 34.6672 27.8108 34.6081 27.6348 34.6081Z" fill="white"/>
<path d="M30.6475 33.209H32.8039V37.5398H30.6475V33.209Z" fill="white"/>
<path d="M30.6475 31.8442C30.6475 31.5577 30.7531 31.3134 30.9555 31.1028C31.1668 30.9005 31.4132 30.791 31.7125 30.791C32.0117 30.791 32.2758 30.8921 32.487 31.1028C32.6983 31.305 32.8039 31.5577 32.8039 31.8442C32.8039 32.1307 32.6983 32.3834 32.487 32.5856C32.2758 32.7878 32.0205 32.8889 31.7125 32.8889C31.4132 32.8889 31.158 32.7878 30.9555 32.5856C30.7443 32.3834 30.6475 32.1307 30.6475 31.8442Z" fill="white"/>
<path d="M15.2002 33.209H17.3566V37.5398H15.2002V33.209Z" fill="white"/>
<path d="M17.6885 33.2099H19.8273V33.8419C20.0386 33.3447 20.4786 32.9824 21.174 32.9824C21.2356 32.9824 21.2884 32.9824 21.3412 32.9908V35.1813C21.1036 35.0129 20.8747 34.9623 20.6635 34.9623C20.3994 34.9623 20.197 35.0382 20.065 35.1813C19.9241 35.3247 19.8625 35.569 19.8625 35.9145V37.5405H17.6885V33.2099Z" fill="white"/>
<path d="M22.4456 30.7913V33.6644C22.2872 33.4453 22.0936 33.2767 21.8559 33.1504C21.7943 33.1166 21.7327 33.0915 21.6711 33.0662V34.6416C21.7503 34.5996 21.8383 34.5743 21.9351 34.5743C22.12 34.5743 22.2608 34.6332 22.3752 34.7511C22.4808 34.8692 22.5425 35.0293 22.5425 35.2147C22.5425 35.4084 22.4897 35.5516 22.3752 35.6697C22.2696 35.7792 22.12 35.8381 21.9351 35.8381C21.8383 35.8381 21.7503 35.8212 21.6711 35.7792L21.6535 35.7622C21.6095 35.7369 21.5655 35.7117 21.5303 35.678L21.1518 35.4168C20.9933 35.3073 20.8437 35.2567 20.6677 35.2567C20.4124 35.2567 20.3332 35.3409 20.3068 35.3662C20.2716 35.4001 20.1924 35.5263 20.1924 35.8887V37.2536C20.4564 37.4304 20.7645 37.5147 21.099 37.5147C21.3894 37.5147 21.6711 37.4388 21.9263 37.2956C22.1904 37.1525 22.3928 36.9502 22.5337 36.7058V37.5147H24.5933V30.7744H22.4456V30.7913Z" fill="white"/>
<path d="M15.2002 31.8442C15.2002 31.5577 15.3058 31.3134 15.5083 31.1028C15.7195 30.9005 15.966 30.791 16.2652 30.791C16.5645 30.791 16.8285 30.8921 17.0398 31.1028C17.251 31.305 17.3566 31.5577 17.3566 31.8442C17.3566 32.1307 17.251 32.3834 17.0398 32.5856C16.8285 32.7878 16.5733 32.8889 16.2652 32.8889C15.966 32.8889 15.7107 32.7878 15.5083 32.5856C15.3058 32.3834 15.2002 32.1307 15.2002 31.8442Z" fill="white"/>
<path d="M17.4095 27.9922V28.1294H17.0828V29.2292H17.0323L16.9141 29.1026V28.7257H16.5262C16.5054 28.9029 16.4793 28.9915 16.4477 28.9915C16.4212 28.9915 16.3614 28.9383 16.2683 28.832C16.1759 28.7257 16.1297 28.6548 16.1297 28.6194C16.1297 28.6013 16.1436 28.5923 16.1716 28.5923H16.3575C16.3775 28.5479 16.3926 28.487 16.4026 28.4097C16.3732 28.4168 16.3356 28.4203 16.2898 28.4203C16.216 28.4203 16.1408 28.392 16.0641 28.3353C15.9882 28.2786 15.9502 28.219 15.9502 28.1565C15.9502 28.1127 15.9638 28.0756 15.991 28.0453C16.0183 28.0151 16.0541 27.9999 16.0985 27.9999C16.221 27.9999 16.3259 28.0489 16.4133 28.1468C16.5015 28.2447 16.5455 28.361 16.5455 28.4957C16.5455 28.5311 16.5437 28.5633 16.5401 28.5923H16.9141V28.1294H16.5821L16.4724 27.9922H17.4095ZM16.4047 28.3614C16.4047 28.2776 16.3876 28.2116 16.3532 28.1633C16.3188 28.1149 16.2733 28.0908 16.2167 28.0908C16.183 28.0908 16.1547 28.1024 16.1318 28.1256C16.1096 28.1488 16.0985 28.1761 16.0985 28.2077C16.0985 28.2547 16.1178 28.294 16.1565 28.3256C16.1959 28.3572 16.2471 28.373 16.3102 28.373C16.3403 28.373 16.3718 28.3691 16.4047 28.3614Z" fill="white"/>
<path d="M18.0845 27.9922V28.1294H17.7589V29.2292H17.7192L17.5902 29.0948V28.1294H17.3506V27.9922H18.0845Z" fill="white"/>
<path fill-rule="evenodd" clip-rule="evenodd" d="M16.4701 27.9914L16.5797 28.1287H16.9117V28.5916H16.5378C16.5394 28.5785 16.5406 28.5647 16.5415 28.5503C16.5426 28.5328 16.5431 28.5144 16.5431 28.4949C16.5431 28.3603 16.4991 28.244 16.411 28.1461C16.3236 28.0481 16.2186 27.9992 16.0961 27.9992C16.0517 27.9992 16.0159 28.0143 15.9886 28.0446C15.9614 28.0749 15.9478 28.1119 15.9478 28.1557C15.9478 28.2182 15.9858 28.2778 16.0617 28.3345C16.1384 28.3912 16.2136 28.4195 16.2874 28.4195C16.3121 28.4195 16.3344 28.4185 16.3544 28.4164C16.3714 28.4147 16.3867 28.4122 16.4002 28.4089C16.3982 28.4241 16.3961 28.4386 16.3937 28.4526C16.3841 28.5095 16.3712 28.5558 16.3551 28.5916H16.1692C16.1412 28.5916 16.1273 28.6006 16.1273 28.6186C16.1273 28.6541 16.1735 28.7249 16.2659 28.8312C16.359 28.9375 16.4188 28.9907 16.4453 28.9907C16.4769 28.9907 16.503 28.9021 16.5238 28.7249H16.9117V29.1018L17.0299 29.2284H17.0804V28.1287H17.5892V29.0941L17.7181 29.2284H17.7579V28.1287H18.0835V27.9914H16.4701ZM17.8023 28.1699V29.2696H17.6981L17.5446 29.1098V28.1699H17.1249V29.2696H17.0096L16.8672 29.1172V28.7662H16.5635C16.5541 28.8377 16.5436 28.8943 16.5315 28.9351C16.5246 28.9586 16.5164 28.9795 16.5061 28.9954C16.497 29.0093 16.4779 29.0319 16.4453 29.0319C16.4249 29.0319 16.4069 29.0226 16.3946 29.0151C16.3807 29.0065 16.3657 28.9947 16.3498 28.9806C16.3179 28.9522 16.2783 28.9109 16.2313 28.8572C16.1846 28.8034 16.1484 28.7574 16.1238 28.7197C16.1116 28.7008 16.1016 28.6833 16.0947 28.6673C16.0879 28.6517 16.0828 28.635 16.0828 28.6186C16.0828 28.5983 16.0915 28.5779 16.1123 28.5645C16.1302 28.553 16.1514 28.5503 16.1692 28.5503H16.3241C16.3331 28.5251 16.341 28.4945 16.3476 28.4585C16.3288 28.46 16.3087 28.4608 16.2874 28.4608C16.2006 28.4608 16.1159 28.4273 16.034 28.3667C15.9524 28.3058 15.9033 28.2355 15.9033 28.1557C15.9033 28.1034 15.9198 28.0567 15.9545 28.0182C15.9906 27.978 16.0392 27.9579 16.0961 27.9579C16.2335 27.9579 16.3505 28.0136 16.4452 28.1197C16.5403 28.2255 16.5876 28.3512 16.5876 28.4949C16.5876 28.5142 16.5871 28.5327 16.5861 28.5503H16.8672V28.1699H16.5573L16.3818 27.9502H18.128V28.1699H17.8023ZM16.3568 28.3273C16.3528 28.2651 16.3375 28.2186 16.3136 28.1852C16.2865 28.147 16.2542 28.1312 16.2143 28.1312C16.1933 28.1312 16.177 28.1378 16.1625 28.1524C16.1478 28.1678 16.1406 28.1854 16.1406 28.2069C16.1406 28.2419 16.1542 28.2699 16.1834 28.2938C16.2131 28.3175 16.2532 28.331 16.3078 28.331C16.3235 28.331 16.3398 28.3297 16.3568 28.3273ZM16.4024 28.3606C16.3694 28.3683 16.3379 28.3722 16.3078 28.3722C16.2448 28.3722 16.1935 28.3564 16.1541 28.3248C16.1154 28.2933 16.0961 28.254 16.0961 28.2069C16.0961 28.1754 16.1072 28.148 16.1294 28.1248C16.1523 28.1016 16.1806 28.09 16.2143 28.09C16.2709 28.09 16.3164 28.1142 16.3508 28.1625C16.3852 28.2108 16.4024 28.2768 16.4024 28.3606Z" fill="white"/>
<path d="M20.9553 28.0674V28.2054H20.6225V29.3119H20.5995L20.4506 29.1826V28.9249C20.3171 29.0033 20.2043 29.0426 20.1123 29.0426C20.0189 29.0426 19.928 29.0027 19.8397 28.923C19.7521 28.8426 19.7083 28.7635 19.7083 28.6857C19.7083 28.6067 19.7573 28.5409 19.855 28.4884C19.9529 28.4352 20.0445 28.4086 20.1298 28.4086C20.1663 28.4086 20.2061 28.4174 20.2492 28.4349C20.2922 28.4517 20.3594 28.4955 20.4506 28.5661V28.2054H19.5967V28.0674H20.9553ZM20.0237 28.5943L20.2842 28.8413C20.3594 28.8063 20.4061 28.7745 20.4244 28.746C20.4433 28.7168 20.4521 28.6789 20.4506 28.6323C20.382 28.5733 20.3105 28.5438 20.2361 28.5438C20.1631 28.5438 20.0923 28.5606 20.0237 28.5943ZM20.2306 28.8637L19.97 28.6148C19.8649 28.6621 19.8123 28.7162 19.8123 28.7771C19.8123 28.8134 19.8317 28.8478 19.8704 28.8802C19.9091 28.912 19.9536 28.9278 20.004 28.9278C20.0587 28.9278 20.1342 28.9064 20.2306 28.8637Z" fill="white"/>
<path d="M21.644 28.0668V28.2049H21.3123V29.3084H21.263L21.1404 29.184V28.2049H20.8962V28.0668H21.2488C21.175 27.921 21.0959 27.8114 21.0112 27.7382C20.9265 27.665 20.8364 27.6283 20.7408 27.6283C20.6612 27.6283 20.6013 27.6478 20.5612 27.6867C20.5211 27.7256 20.501 27.7839 20.501 27.8617C20.501 27.9271 20.5174 27.9955 20.5503 28.0668H20.4189C20.359 27.9864 20.3291 27.9019 20.3291 27.8131C20.3291 27.7204 20.3634 27.6445 20.432 27.5855C20.4999 27.5266 20.5864 27.4971 20.6915 27.4971C20.8535 27.4971 20.99 27.5593 21.101 27.6837C21.1791 27.7713 21.2495 27.8989 21.3123 28.0668H21.644Z" fill="white"/>
<path fill-rule="evenodd" clip-rule="evenodd" d="M20.5492 28.067C20.5428 28.0532 20.537 28.0394 20.5319 28.0258C20.5106 27.9693 20.4999 27.9146 20.4999 27.8619C20.4999 27.7841 20.52 27.7258 20.5601 27.6869C20.6003 27.648 20.6601 27.6285 20.7397 27.6285C20.8353 27.6285 20.9254 27.6652 21.0101 27.7384C21.0866 27.8046 21.1586 27.9004 21.2262 28.0258C21.2334 28.0392 21.2406 28.0529 21.2477 28.067H20.5492ZM21.1763 28.0258C21.1133 27.9123 21.0475 27.8272 20.9797 27.7686C20.9015 27.7008 20.8217 27.6698 20.7397 27.6698C20.6676 27.6698 20.6213 27.6873 20.5923 27.7154C20.563 27.7438 20.5444 27.79 20.5444 27.8619C20.5444 27.9135 20.5557 27.968 20.5792 28.0258H21.1763ZM20.3395 28.0258H19.5518V28.2463H20.4057V28.4796C20.3488 28.439 20.302 28.4107 20.2664 28.3967C20.2193 28.3776 20.1735 28.3671 20.1294 28.3671C20.034 28.3671 19.9347 28.3967 19.8322 28.4524C19.7258 28.5095 19.6634 28.5869 19.6634 28.6854C19.6634 28.7784 19.7159 28.8674 19.808 28.9519L19.8083 28.9522C19.9021 29.0369 20.0036 29.0834 20.1119 29.0834C20.1986 29.0834 20.297 29.0531 20.4057 28.9971V29.2001L20.5815 29.3528H20.6666V28.2463H21.0948V29.2002L21.2423 29.3498H21.3557V28.2463H21.6874V28.0258H21.3427C21.2816 27.8689 21.2125 27.7454 21.1342 27.6577C21.0155 27.5246 20.8668 27.4561 20.6904 27.4561C20.5756 27.4561 20.4778 27.4886 20.4006 27.5556C20.3223 27.623 20.2835 27.71 20.2835 27.8133C20.2835 27.8873 20.3025 27.9582 20.3395 28.0258ZM20.39 28.0258C20.3984 28.0397 20.4077 28.0534 20.4178 28.067H19.5963V28.2051H20.4502V28.5658C20.4347 28.5538 20.4199 28.5425 20.4057 28.5321C20.3368 28.481 20.2845 28.4485 20.2488 28.4345C20.2057 28.417 20.1659 28.4083 20.1294 28.4083C20.044 28.4083 19.9524 28.4349 19.8546 28.488C19.7568 28.5405 19.7079 28.6063 19.7079 28.6854C19.7079 28.7632 19.7517 28.8422 19.8393 28.9226C19.9276 29.0024 20.0185 29.0422 20.1119 29.0422C20.1935 29.0422 20.2914 29.0114 20.4057 28.9497C20.4203 28.9418 20.4351 28.9334 20.4502 28.9246V29.1822L20.5991 29.3115H20.6221V28.2051H21.1393V29.1842L21.2619 29.3086H21.3112V28.2051H21.6429V28.067H21.3112C21.2484 27.8992 21.178 27.7715 21.0999 27.684C20.9889 27.5595 20.8525 27.4973 20.6904 27.4973C20.5853 27.4973 20.4988 27.5268 20.4309 27.5858C20.3623 27.6448 20.328 27.7206 20.328 27.8133C20.328 27.887 20.3487 27.9579 20.39 28.0258ZM19.9696 28.6144C19.8645 28.6617 19.8119 28.7159 19.8119 28.7768C19.8119 28.8131 19.8313 28.8474 19.87 28.8798C19.9086 28.9116 19.9532 28.9275 20.0035 28.9275C20.0499 28.9275 20.1111 28.9122 20.1872 28.8815C20.201 28.876 20.2154 28.8699 20.2302 28.8633L19.9696 28.6144ZM20.2838 28.841C20.359 28.806 20.4057 28.7742 20.4239 28.7457C20.4429 28.7165 20.4517 28.6786 20.4502 28.6319C20.3816 28.5729 20.3101 28.5434 20.2356 28.5434C20.1776 28.5434 20.121 28.5541 20.0658 28.5754C20.0515 28.5809 20.0373 28.5871 20.0232 28.594L20.2838 28.841ZM20.0996 28.6074L20.2925 28.7902C20.3153 28.7786 20.334 28.7678 20.3489 28.7576C20.3701 28.7433 20.3809 28.7321 20.3857 28.7247L20.3858 28.7244C20.3971 28.707 20.4046 28.683 20.4057 28.6504C20.3481 28.6049 20.2916 28.5847 20.2356 28.5847C20.1895 28.5847 20.1443 28.5922 20.0996 28.6074ZM20.154 28.8498L19.9607 28.6651C19.8811 28.7061 19.8564 28.7448 19.8564 28.7768C19.8564 28.7979 19.8672 28.8219 19.8996 28.8491C19.9304 28.8743 19.9644 28.8863 20.0035 28.8863C20.0385 28.8863 20.0881 28.8751 20.154 28.8498Z" fill="white"/>
<path d="M23.903 28.0677V28.206H23.5713V29.3113H23.522L23.3994 29.1867V28.206H23.1553V28.0677H23.4366C23.3476 27.9918 23.3031 27.9077 23.3031 27.8155C23.3031 27.7065 23.3666 27.623 23.4936 27.5652C23.5943 27.5198 23.7122 27.4971 23.8472 27.4971C24.0596 27.4971 24.2534 27.5448 24.4286 27.6402C24.6045 27.735 24.7614 27.8775 24.8993 28.0677H24.8249C24.6855 27.9217 24.5366 27.8123 24.3782 27.7396C24.2198 27.6662 24.0523 27.6295 23.8757 27.6295C23.7421 27.6295 23.6421 27.6493 23.5757 27.6889C23.5093 27.7279 23.4761 27.7863 23.4761 27.8642C23.4761 27.9337 23.499 28.0015 23.545 28.0677H23.903Z" fill="white"/>
<path d="M25.2034 28.0674V28.2057H24.8706V29.311H24.8246L24.6987 29.1863V28.863C24.5739 28.9396 24.4633 28.9779 24.367 28.9779C24.2779 28.9779 24.19 28.939 24.1031 28.8611C24.017 28.7825 23.9739 28.7091 23.9739 28.641C23.9739 28.5962 23.9936 28.5537 24.033 28.5134C24.0724 28.4732 24.1309 28.442 24.2082 28.4199C24.2863 28.3972 24.3524 28.3858 24.4064 28.3858C24.5034 28.3858 24.6009 28.4293 24.6987 28.5163V28.2057H23.8447V28.0674H25.2034ZM24.6987 28.6312V28.5825C24.6359 28.5416 24.5732 28.5212 24.5104 28.5212C24.4242 28.5212 24.3334 28.5423 24.2378 28.5845C24.1422 28.6261 24.0944 28.6731 24.0944 28.7257C24.0944 28.7672 24.1104 28.802 24.1425 28.8299C24.1746 28.8572 24.2122 28.8708 24.2553 28.8708C24.3049 28.8708 24.3896 28.8396 24.5093 28.7773C24.629 28.7143 24.6921 28.6657 24.6987 28.6312Z" fill="white"/>
<path fill-rule="evenodd" clip-rule="evenodd" d="M23.5465 28.0679C23.5006 28.0017 23.4776 27.9339 23.4776 27.8644C23.4776 27.7865 23.5108 27.7281 23.5772 27.6891C23.6436 27.6495 23.7436 27.6297 23.8772 27.6297C24.0538 27.6297 24.2213 27.6664 24.3797 27.7398C24.5228 27.8055 24.6582 27.9011 24.7858 28.0267C24.7994 28.0401 24.8129 28.0539 24.8264 28.0679H23.5465ZM24.724 28.0267C24.6082 27.9181 24.4868 27.835 24.3599 27.7767C24.2077 27.7062 24.0469 27.671 23.8772 27.671C23.7469 27.671 23.6571 27.6905 23.6013 27.7238L23.601 27.724C23.5485 27.7548 23.5221 27.7995 23.5221 27.8644C23.5221 27.9186 23.538 27.9726 23.5715 28.0267H24.724ZM24.9008 28.0679H25.2035V28.2062H24.8706V29.3115H24.8246L24.6987 29.1869V28.8636C24.6837 28.8728 24.6689 28.8815 24.6542 28.8896C24.5475 28.9488 24.4517 28.9785 24.367 28.9785C24.278 28.9785 24.19 28.9395 24.1032 28.8616C24.017 28.7831 23.974 28.7097 23.974 28.6415C23.974 28.5967 23.9937 28.5542 24.0331 28.514C24.0725 28.4737 24.1309 28.4425 24.2083 28.4205C24.2864 28.3978 24.3524 28.3864 24.4064 28.3864C24.4888 28.3864 24.5714 28.4177 24.6542 28.4803C24.6691 28.4915 24.6839 28.5037 24.6987 28.5169V28.2062H23.5728V29.3115H23.5236L23.4009 29.1869V28.2062H23.1568V28.0679H23.4382C23.4224 28.0545 23.4079 28.0407 23.3949 28.0267C23.3347 27.9619 23.3046 27.8915 23.3046 27.8157C23.3046 27.7067 23.3681 27.6232 23.4951 27.5655C23.5958 27.52 23.7137 27.4973 23.8487 27.4973C24.0611 27.4973 24.2549 27.545 24.4301 27.6404C24.593 27.7283 24.7397 27.857 24.8701 28.0267C24.8804 28.0402 24.8907 28.0539 24.9008 28.0679ZM24.9244 28.0267H25.2479V28.2475H24.9151V29.3528H24.8053L24.6542 29.2032V28.9373C24.552 28.9909 24.4559 29.0197 24.367 29.0197C24.2628 29.0197 24.1643 28.9739 24.0722 28.8912L24.0719 28.891C23.9825 28.8095 23.9295 28.7261 23.9295 28.6415C23.9295 28.5844 23.955 28.5324 24.0001 28.4863C24.0466 28.4389 24.1129 28.4046 24.195 28.3811C24.2754 28.3577 24.3462 28.3452 24.4064 28.3452C24.4917 28.3452 24.5744 28.3743 24.6542 28.4282V28.2475H23.6173V29.3528H23.5039L23.3564 29.2029V28.2475H23.1123V28.0267H23.338C23.287 27.9627 23.2601 27.8922 23.2601 27.8157C23.2601 27.7533 23.2784 27.6967 23.3159 27.6476C23.353 27.5988 23.4071 27.5595 23.4755 27.5284C23.5834 27.4798 23.7083 27.4561 23.8487 27.4561C24.0686 27.4561 24.2702 27.5055 24.4525 27.6048C24.6296 27.7003 24.7867 27.8414 24.9244 28.0267ZM24.2567 28.6224C24.163 28.6631 24.1389 28.7001 24.1389 28.7263C24.1389 28.7566 24.15 28.7803 24.1728 28.8002C24.1968 28.8205 24.2236 28.8301 24.2553 28.8301C24.2716 28.8301 24.2989 28.8247 24.3396 28.8097C24.3794 28.795 24.4286 28.7726 24.4874 28.742C24.5463 28.711 24.5894 28.6845 24.618 28.6624C24.6323 28.6514 24.642 28.6422 24.6481 28.635C24.6517 28.6307 24.6534 28.6278 24.6542 28.6261V28.6052C24.6042 28.5762 24.5564 28.563 24.5104 28.563C24.4323 28.563 24.3479 28.5821 24.2569 28.6223L24.2567 28.6224ZM24.6987 28.5831V28.6318C24.6922 28.6662 24.629 28.7149 24.5093 28.7779C24.3896 28.8402 24.305 28.8714 24.2553 28.8714C24.2123 28.8714 24.1747 28.8577 24.1426 28.8305C24.1104 28.8026 24.0944 28.7678 24.0944 28.7263C24.0944 28.6737 24.1422 28.6266 24.2378 28.5851C24.3334 28.5429 24.4243 28.5218 24.5104 28.5218C24.5732 28.5218 24.636 28.5422 24.6987 28.5831Z" fill="white"/>
<path d="M27.4311 28.0677V28.206H27.1138V29.3113H27.0667L26.9494 29.1867V28.206H26.7158V28.0677H26.985C26.8998 27.9918 26.8572 27.9077 26.8572 27.8155C26.8572 27.7065 26.9179 27.623 27.0394 27.5652C27.1358 27.5198 27.2485 27.4971 27.3777 27.4971C27.5808 27.4971 27.7662 27.5448 27.9337 27.6402C28.102 27.735 28.2521 27.8775 28.3841 28.0677H28.3128C28.1795 27.9217 28.0371 27.8123 27.8856 27.7396C27.7341 27.6662 27.5739 27.6295 27.4049 27.6295C27.2771 27.6295 27.1815 27.6493 27.118 27.6889C27.0544 27.7279 27.0227 27.7863 27.0227 27.8642C27.0227 27.9337 27.0446 28.0015 27.0886 28.0677H27.4311Z" fill="white"/>
<path d="M28.6717 28.0674V28.2057H28.3533V29.311H28.3093L28.1889 29.1863V28.863C28.0695 28.9396 27.9638 28.9779 27.8716 28.9779C27.7864 28.9779 27.7023 28.939 27.6192 28.8611C27.5368 28.7825 27.4956 28.7091 27.4956 28.641C27.4956 28.5962 27.5145 28.5537 27.5522 28.5134C27.5899 28.4732 27.6457 28.442 27.7197 28.4199C27.7944 28.3972 27.8576 28.3858 27.9093 28.3858C28.0021 28.3858 28.0954 28.4293 28.1889 28.5163V28.2057H27.3721V28.0674H28.6717ZM28.1889 28.6312V28.5825C28.1289 28.5416 28.0688 28.5212 28.0088 28.5212C27.9264 28.5212 27.8395 28.5423 27.748 28.5845C27.6566 28.6261 27.6108 28.6731 27.6108 28.7257C27.6108 28.7672 27.6262 28.802 27.6569 28.8299C27.6876 28.8572 27.7236 28.8708 27.7648 28.8708C27.8123 28.8708 27.8932 28.8396 28.0077 28.7773C28.1222 28.7143 28.1826 28.6657 28.1889 28.6312Z" fill="white"/>
<path fill-rule="evenodd" clip-rule="evenodd" d="M27.0882 28.0679C27.0442 28.0017 27.0222 27.9339 27.0222 27.8644C27.0222 27.7865 27.054 27.7281 27.1175 27.6891C27.1811 27.6495 27.2767 27.6297 27.4045 27.6297C27.5734 27.6297 27.7336 27.6664 27.8851 27.7398C28.022 27.8055 28.1515 27.9011 28.2736 28.0267C28.2866 28.0401 28.2995 28.0539 28.3124 28.0679H27.0882ZM28.2131 28.0267C28.1022 27.9178 27.986 27.8346 27.8647 27.7764C27.7194 27.7061 27.5662 27.671 27.4045 27.671C27.2802 27.671 27.1951 27.6905 27.1424 27.7234L27.1421 27.7235C27.0924 27.7539 27.0667 27.7987 27.0667 27.8644C27.0667 27.9188 27.082 27.9727 27.1138 28.0267H28.2131ZM28.3836 28.0679H28.6731V28.2062H28.3547V29.3115H28.3107L28.1903 29.1869V28.8636C28.1752 28.8732 28.1604 28.8823 28.1458 28.8907C28.0445 28.9492 27.9535 28.9785 27.873 28.9785C27.7878 28.9785 27.7037 28.9395 27.6206 28.8616C27.5382 28.7831 27.497 28.7097 27.497 28.6415C27.497 28.5967 27.5159 28.5542 27.5536 28.514C27.5913 28.4737 27.6471 28.4425 27.7211 28.4205C27.7958 28.3978 27.859 28.3864 27.9107 28.3864C27.9888 28.3864 28.0672 28.4172 28.1458 28.4788C28.1606 28.4904 28.1755 28.5031 28.1903 28.5169V28.2062H27.1133V29.3115H27.0662L26.9489 29.1869V28.2062H26.7154V28.0679H26.9845C26.9694 28.0545 26.9556 28.0407 26.9432 28.0267C26.8856 27.9619 26.8568 27.8915 26.8568 27.8157C26.8568 27.7067 26.9175 27.6232 27.039 27.5655C27.1353 27.52 27.2481 27.4973 27.3772 27.4973C27.5804 27.4973 27.7658 27.545 27.9333 27.6404C28.0892 27.7283 28.2295 27.857 28.3542 28.0267C28.3641 28.0402 28.3739 28.0539 28.3836 28.0679ZM28.4077 28.0267H28.7176V28.2475H28.3992V29.3528H28.2908L28.1458 29.2026V28.9389C28.0491 28.9914 27.9579 29.0197 27.873 29.0197C27.7719 29.0197 27.6771 28.9733 27.589 28.8906L27.5887 28.8904C27.5029 28.8086 27.4525 28.7254 27.4525 28.6415C27.4525 28.585 27.4767 28.5332 27.52 28.4869C27.5646 28.4394 27.6283 28.4049 27.7074 28.3813C27.7844 28.3578 27.8526 28.3452 27.9107 28.3452C27.992 28.3452 28.0704 28.3737 28.1458 28.4261V28.2475H27.1578V29.3528H27.046L26.9044 29.2023V28.2475H26.6709V28.0267H26.8872C26.8381 27.9625 26.8123 27.892 26.8123 27.8157C26.8123 27.7537 26.8297 27.6974 26.8654 27.6483C26.9009 27.5995 26.9529 27.56 27.0187 27.5288C27.1224 27.4798 27.2424 27.4561 27.3772 27.4561C27.5883 27.4561 27.7817 27.5057 27.9565 27.6053C28.126 27.7008 28.2762 27.8418 28.4077 28.0267ZM27.769 28.6221C27.6803 28.6624 27.6567 28.6991 27.6567 28.7263C27.6567 28.7572 27.6676 28.7811 27.6893 28.8009C27.712 28.8209 27.7369 28.8301 27.7662 28.8301C27.781 28.8301 27.8066 28.8249 27.8455 28.8099C27.8834 28.7953 27.9303 28.773 27.9865 28.7424C28.0427 28.7115 28.0838 28.685 28.1111 28.663C28.1247 28.652 28.1339 28.6429 28.1397 28.6357C28.1433 28.6312 28.145 28.6282 28.1458 28.6265V28.6047C28.0983 28.5759 28.0532 28.563 28.0102 28.563C27.9361 28.563 27.856 28.5819 27.7692 28.622L27.769 28.6221ZM28.1903 28.5831V28.6318C28.184 28.6662 28.1236 28.7149 28.0091 28.7779C27.8946 28.8402 27.8136 28.8714 27.7662 28.8714C27.725 28.8714 27.689 28.8577 27.6583 28.8305C27.6276 28.8026 27.6122 28.7678 27.6122 28.7263C27.6122 28.6737 27.658 28.6266 27.7494 28.5851C27.8409 28.5429 27.9278 28.5218 28.0102 28.5218C28.0702 28.5218 28.1303 28.5422 28.1903 28.5831Z" fill="white"/>
<path d="M31.4073 28.2115H31.0944V29.3112H31.0532L30.9338 29.1827V28.8957L30.4943 29.1923L30.3924 29.0812L30.8515 28.7894C30.7245 28.7642 30.6216 28.7314 30.5427 28.6908C30.4638 28.6502 30.4102 28.609 30.3821 28.5671C30.3546 28.5246 30.3409 28.4692 30.3409 28.4009V28.2115H30.1865V28.0742H31.4073V28.2115ZM30.9338 28.7536V28.2115H30.4994V28.3854C30.4994 28.4447 30.5056 28.4907 30.518 28.5236C30.531 28.5565 30.5547 28.5903 30.589 28.6251C30.624 28.6592 30.6737 28.6889 30.7383 28.714C30.8028 28.7385 30.8679 28.7517 30.9338 28.7536Z" fill="white"/>
<path d="M32.0556 28.0742V28.2115H31.7437V29.3112H31.7056L31.5821 29.1769V28.2115H31.3525V28.0742H32.0556Z" fill="white"/>
<path fill-rule="evenodd" clip-rule="evenodd" d="M31.1385 28.2529V29.3527H31.0324L30.8889 29.1982V28.9769L30.4867 29.2484L30.3261 29.0733L30.7437 28.8078C30.657 28.7857 30.5825 28.7589 30.5207 28.7271C30.4392 28.6851 30.3779 28.6397 30.3439 28.5891L30.3435 28.5885C30.3106 28.5376 30.296 28.4741 30.296 28.4011V28.2529H30.1416V28.0332H32.0993V28.2529H31.7874V29.3527H31.6843L31.5368 29.1923V28.2529H31.1385ZM31.5813 28.2117V29.1771L31.7048 29.3114H31.7429V28.2117H32.0548V28.0744H30.1861V28.2117H30.3405V28.4011C30.3405 28.4694 30.3542 28.5248 30.3817 28.5673C30.4098 28.6092 30.4633 28.6504 30.5423 28.691C30.6086 28.7251 30.6919 28.7538 30.7922 28.777C30.8112 28.7814 30.8308 28.7856 30.8511 28.7896L30.392 29.0814L30.4939 29.1926L30.9334 28.8959V29.1829L31.0528 29.3114H31.094V28.2117H31.5813ZM30.9334 28.2117V28.7538C30.9186 28.7534 30.9037 28.7524 30.8889 28.7508C30.8381 28.7453 30.7878 28.7332 30.7378 28.7142C30.6733 28.6891 30.6236 28.6594 30.5886 28.6253C30.5543 28.5905 30.5306 28.5567 30.5175 28.5238C30.5052 28.491 30.499 28.4449 30.499 28.3856V28.2117H30.9334ZM30.5435 28.2529V28.3856C30.5435 28.4428 30.5496 28.4834 30.5594 28.5099C30.5699 28.5362 30.5897 28.5653 30.6211 28.5972C30.6506 28.6258 30.6943 28.6525 30.7549 28.6761C30.7995 28.693 30.8441 28.704 30.8889 28.7093V28.2529H30.5435Z" fill="white"/>
</g>
<defs>
<clipPath id="clip0_198_10627">
<rect width="17.6036" height="27.0957" fill="white" transform="translate(15.1982 10.4521)"/>
</clipPath>
</defs>
</svg>
