<svg width="131" height="40" viewBox="0 0 131 40" fill="none" xmlns="http://www.w3.org/2000/svg">
<g clip-path="url(#clip0_194_12214)">
<path d="M8.84157 37.8269C8.84157 37.8269 11.9397 41.8207 16.2208 38.9873C17.3868 35.3428 15.0097 32.9431 14.238 32.4023C13.1621 34.5767 13.8718 37.4101 13.8718 37.4101C11.3877 36.2779 8.83594 37.8269 8.83594 37.8269H8.84157Z" fill="#474649"/>
<path d="M4.07031 31.421C4.07031 31.421 6.04187 35.7528 10.5821 34.091C12.2945 31.0605 10.7792 28.4073 10.0075 27.6074C8.64995 29.3368 8.68375 31.9505 8.70065 32.0631C6.6784 30.5873 4.07031 31.421 4.07031 31.421Z" fill="#474649"/>
<path d="M1.15625 24.5022C1.15625 24.5022 1.88291 28.9072 6.40058 28.5073C8.52986 26.2034 7.93276 23.5277 7.2737 22.418C5.73025 23.6516 5.15569 25.8879 5.13315 26.1132C3.65167 24.3839 1.15625 24.5022 1.15625 24.5022Z" fill="#474649"/>
<path d="M0.0167836 17.4164C0.0167836 17.4164 -0.462022 21.5567 3.69514 22.3622C6.02157 20.8131 6.27506 18.4022 5.86948 16.9883C4.28097 17.7262 3.2614 19.4612 3.1431 19.7766C2.20802 17.9403 0.0167836 17.4164 0.0167836 17.4164Z" fill="#474649"/>
<path d="M0.671693 11.1191C0.671693 11.1191 -0.798522 14.7074 2.72211 16.4649C5.02038 15.5861 5.92166 13.6653 5.87096 12.0148C4.37258 12.3415 3.14458 13.5188 2.8742 13.8793C2.42919 12.1049 0.671693 11.1191 0.671693 11.1191Z" fill="#474649"/>
<path d="M2.98387 5.35742C2.98387 5.35742 0.843327 8.22462 3.58097 10.613C5.67645 10.23 6.95514 8.91748 7.32129 7.13182C6.0088 7.17125 4.7808 7.84158 4.34706 8.20209C4.25693 6.59105 2.98387 5.35742 2.98387 5.35742Z" fill="#474649"/>
<path d="M6.75854 -0.000226366C6.75854 -0.000226366 4.25185 2.12342 6.2065 4.82163C8.0147 4.74277 9.41168 4.05554 10.2116 2.21355C9.11314 2.09525 8.05413 2.3769 7.4514 2.68672C7.58096 1.28973 6.75854 -0.00585938 6.75854 -0.00585938V-0.000226366Z" fill="#474649"/>
</g>
<path d="M37.1133 7.48H38.5173V16H37.1133V7.48ZM40.3792 10H41.6992V10.816C41.8832 10.512 42.1352 10.28 42.4552 10.12C42.7752 9.96 43.1312 9.88 43.5232 9.88C43.8672 9.88 44.1792 9.94 44.4592 10.06C44.7472 10.18 44.9912 10.348 45.1912 10.564C45.3912 10.78 45.5432 11.044 45.6472 11.356C45.7592 11.66 45.8152 12.004 45.8152 12.388V16H44.4952V12.604C44.4952 12.124 44.3832 11.752 44.1592 11.488C43.9352 11.216 43.6312 11.08 43.2472 11.08C42.8072 11.08 42.4392 11.248 42.1432 11.584C41.8472 11.912 41.6992 12.4 41.6992 13.048V16H40.3792V10ZM49.9642 16.12C49.5562 16.12 49.1722 16.04 48.8122 15.88C48.4602 15.712 48.1562 15.488 47.9002 15.208C47.6442 14.92 47.4402 14.588 47.2882 14.212C47.1442 13.836 47.0722 13.432 47.0722 13C47.0722 12.568 47.1442 12.164 47.2882 11.788C47.4402 11.412 47.6442 11.084 47.9002 10.804C48.1562 10.516 48.4602 10.292 48.8122 10.132C49.1722 9.964 49.5562 9.88 49.9642 9.88C50.3962 9.88 50.7802 9.976 51.1162 10.168C51.4602 10.352 51.7162 10.564 51.8842 10.804V7H53.2042V16H51.8842V15.196C51.7162 15.436 51.4602 15.652 51.1162 15.844C50.7802 16.028 50.3962 16.12 49.9642 16.12ZM50.2042 14.92C50.4682 14.92 50.7082 14.872 50.9242 14.776C51.1482 14.672 51.3362 14.536 51.4882 14.368C51.6482 14.192 51.7722 13.988 51.8602 13.756C51.9482 13.524 51.9922 13.272 51.9922 13C51.9922 12.728 51.9482 12.476 51.8602 12.244C51.7722 12.012 51.6482 11.812 51.4882 11.644C51.3362 11.468 51.1482 11.332 50.9242 11.236C50.7082 11.132 50.4682 11.08 50.2042 11.08C49.9402 11.08 49.6962 11.132 49.4722 11.236C49.2562 11.332 49.0682 11.468 48.9082 11.644C48.7562 11.812 48.6362 12.012 48.5482 12.244C48.4602 12.476 48.4162 12.728 48.4162 13C48.4162 13.272 48.4602 13.524 48.5482 13.756C48.6362 13.988 48.7562 14.192 48.9082 14.368C49.0682 14.536 49.2562 14.672 49.4722 14.776C49.6962 14.872 49.9402 14.92 50.2042 14.92ZM55.6525 8.692C55.4125 8.692 55.2045 8.608 55.0285 8.44C54.8525 8.264 54.7645 8.052 54.7645 7.804C54.7645 7.564 54.8525 7.36 55.0285 7.192C55.2045 7.016 55.4125 6.928 55.6525 6.928C55.9005 6.928 56.1085 7.016 56.2765 7.192C56.4445 7.36 56.5285 7.564 56.5285 7.804C56.5285 8.052 56.4445 8.264 56.2765 8.44C56.1085 8.608 55.9005 8.692 55.6525 8.692ZM54.9925 10H56.3125V16H54.9925V10ZM60.5462 16.12C60.1382 16.12 59.7542 16.04 59.3942 15.88C59.0422 15.712 58.7382 15.488 58.4822 15.208C58.2262 14.92 58.0222 14.588 57.8702 14.212C57.7262 13.836 57.6542 13.432 57.6542 13C57.6542 12.568 57.7262 12.164 57.8702 11.788C58.0222 11.412 58.2262 11.084 58.4822 10.804C58.7382 10.516 59.0422 10.292 59.3942 10.132C59.7542 9.964 60.1382 9.88 60.5462 9.88C60.9782 9.88 61.3622 9.976 61.6982 10.168C62.0422 10.352 62.2982 10.564 62.4662 10.804V10H63.7862V16H62.4662V15.196C62.2982 15.436 62.0422 15.652 61.6982 15.844C61.3622 16.028 60.9782 16.12 60.5462 16.12ZM60.7862 14.92C61.0502 14.92 61.2902 14.872 61.5062 14.776C61.7302 14.672 61.9182 14.536 62.0702 14.368C62.2302 14.192 62.3542 13.988 62.4422 13.756C62.5302 13.524 62.5742 13.272 62.5742 13C62.5742 12.728 62.5302 12.476 62.4422 12.244C62.3542 12.012 62.2302 11.812 62.0702 11.644C61.9182 11.468 61.7302 11.332 61.5062 11.236C61.2902 11.132 61.0502 11.08 60.7862 11.08C60.5222 11.08 60.2782 11.132 60.0542 11.236C59.8382 11.332 59.6502 11.468 59.4902 11.644C59.3382 11.812 59.2182 12.012 59.1302 12.244C59.0422 12.476 58.9982 12.728 58.9982 13C58.9982 13.272 59.0422 13.524 59.1302 13.756C59.2182 13.988 59.3382 14.192 59.4902 14.368C59.6502 14.536 59.8382 14.672 60.0542 14.776C60.2782 14.872 60.5222 14.92 60.7862 14.92ZM65.4425 7.48H66.5825V10.672H65.4425V7.48ZM70.0138 16.12C69.4778 16.12 68.9938 16.016 68.5618 15.808C68.1378 15.6 67.8178 15.28 67.6018 14.848L68.5738 14.152C68.6938 14.416 68.8858 14.62 69.1498 14.764C69.4218 14.908 69.7098 14.98 70.0138 14.98C70.2458 14.98 70.4458 14.928 70.6138 14.824C70.7898 14.712 70.8778 14.552 70.8778 14.344C70.8778 14.168 70.8138 14.024 70.6858 13.912C70.5578 13.8 70.3138 13.688 69.9538 13.576L69.4258 13.432C68.8978 13.288 68.5018 13.06 68.2378 12.748C67.9738 12.428 67.8458 12.044 67.8538 11.596C67.8538 11.332 67.9098 11.096 68.0218 10.888C68.1338 10.672 68.2858 10.492 68.4778 10.348C68.6698 10.196 68.8938 10.08 69.1498 10C69.4138 9.92 69.6978 9.88 70.0018 9.88C70.4578 9.88 70.8578 9.968 71.2018 10.144C71.5458 10.312 71.8218 10.564 72.0298 10.9L71.1178 11.596C70.9818 11.412 70.8178 11.264 70.6258 11.152C70.4418 11.04 70.2258 10.984 69.9778 10.984C69.7778 10.984 69.5938 11.032 69.4258 11.128C69.2578 11.224 69.1738 11.364 69.1738 11.548C69.1738 11.692 69.2178 11.824 69.3058 11.944C69.4018 12.064 69.5978 12.168 69.8938 12.256L70.5058 12.436C71.0338 12.596 71.4458 12.816 71.7418 13.096C72.0378 13.376 72.1858 13.764 72.1858 14.26C72.1858 14.548 72.1298 14.808 72.0178 15.04C71.9058 15.264 71.7538 15.46 71.5618 15.628C71.3698 15.788 71.1418 15.912 70.8778 16C70.6138 16.08 70.3258 16.12 70.0138 16.12ZM80.2432 13.684H78.2872L77.5672 16H76.4032L77.1232 13.684H75.8872V12.628H77.4592L78.0232 10.804H76.7632V9.748H78.3592L79.0672 7.48H80.2312L79.5232 9.748H81.4672L82.1752 7.48H83.3392L82.6312 9.748H83.8792V10.804H82.3072L81.7312 12.628H83.0152V13.684H81.3952L80.6752 16H79.5232L80.2432 13.684ZM78.6232 12.628H80.5792L81.1432 10.804H79.1992L78.6232 12.628ZM86.0563 8.788H84.3403L85.3483 7.48H87.3763V16H86.0563V8.788ZM89.4607 11.368L90.4327 10.036L88.8607 9.508L89.1367 8.584L90.7327 9.1V7.48H91.6927V9.1L93.2887 8.584L93.5767 9.508L91.9927 10.024L92.9767 11.368L92.2087 11.92L91.2247 10.588L90.2287 11.92L89.4607 11.368ZM26.2736 24.692C26.0336 24.692 25.8256 24.608 25.6496 24.44C25.4736 24.264 25.3856 24.052 25.3856 23.804C25.3856 23.564 25.4736 23.36 25.6496 23.192C25.8256 23.016 26.0336 22.928 26.2736 22.928C26.5216 22.928 26.7296 23.016 26.8976 23.192C27.0656 23.36 27.1496 23.564 27.1496 23.804C27.1496 24.052 27.0656 24.264 26.8976 24.44C26.7296 24.608 26.5216 24.692 26.2736 24.692ZM25.6136 26H26.9336V32H25.6136V26ZM28.7073 26H30.0273V26.816C30.2113 26.512 30.4633 26.28 30.7833 26.12C31.1033 25.96 31.4593 25.88 31.8513 25.88C32.1953 25.88 32.5073 25.94 32.7873 26.06C33.0753 26.18 33.3193 26.348 33.5193 26.564C33.7193 26.78 33.8713 27.044 33.9753 27.356C34.0873 27.66 34.1433 28.004 34.1433 28.388V32H32.8233V28.604C32.8233 28.124 32.7113 27.752 32.4873 27.488C32.2633 27.216 31.9593 27.08 31.5753 27.08C31.1353 27.08 30.7673 27.248 30.4713 27.584C30.1753 27.912 30.0273 28.4 30.0273 29.048V32H28.7073V26ZM37.7403 32.12C37.2043 32.12 36.7203 32.016 36.2883 31.808C35.8643 31.6 35.5443 31.28 35.3283 30.848L36.3003 30.152C36.4203 30.416 36.6123 30.62 36.8763 30.764C37.1483 30.908 37.4363 30.98 37.7403 30.98C37.9723 30.98 38.1723 30.928 38.3403 30.824C38.5163 30.712 38.6043 30.552 38.6043 30.344C38.6043 30.168 38.5403 30.024 38.4123 29.912C38.2843 29.8 38.0403 29.688 37.6803 29.576L37.1523 29.432C36.6243 29.288 36.2283 29.06 35.9643 28.748C35.7003 28.428 35.5723 28.044 35.5803 27.596C35.5803 27.332 35.6363 27.096 35.7483 26.888C35.8603 26.672 36.0123 26.492 36.2043 26.348C36.3963 26.196 36.6203 26.08 36.8763 26C37.1403 25.92 37.4243 25.88 37.7283 25.88C38.1843 25.88 38.5843 25.968 38.9283 26.144C39.2723 26.312 39.5483 26.564 39.7563 26.9L38.8443 27.596C38.7083 27.412 38.5443 27.264 38.3523 27.152C38.1683 27.04 37.9523 26.984 37.7043 26.984C37.5043 26.984 37.3203 27.032 37.1523 27.128C36.9843 27.224 36.9003 27.364 36.9003 27.548C36.9003 27.692 36.9443 27.824 37.0323 27.944C37.1283 28.064 37.3243 28.168 37.6203 28.256L38.2323 28.436C38.7603 28.596 39.1723 28.816 39.4683 29.096C39.7643 29.376 39.9123 29.764 39.9123 30.26C39.9123 30.548 39.8563 30.808 39.7443 31.04C39.6323 31.264 39.4803 31.46 39.2883 31.628C39.0963 31.788 38.8683 31.912 38.6043 32C38.3403 32.08 38.0523 32.12 37.7403 32.12ZM43.4296 32.12C43.0856 32.12 42.7736 32.06 42.4936 31.94C42.2216 31.82 41.9896 31.652 41.7976 31.436C41.6056 31.212 41.4576 30.944 41.3536 30.632C41.2496 30.32 41.1976 29.972 41.1976 29.588V26H42.5176V29.372C42.5176 29.852 42.6216 30.232 42.8296 30.512C43.0376 30.784 43.3336 30.92 43.7176 30.92C44.1496 30.92 44.5016 30.756 44.7736 30.428C45.0456 30.092 45.1816 29.6 45.1816 28.952V26H46.5016V32H45.1816V31.184C45.0056 31.488 44.7656 31.72 44.4616 31.88C44.1576 32.04 43.8136 32.12 43.4296 32.12ZM48.2776 26H49.5976V27.068C49.6536 26.9 49.7336 26.748 49.8376 26.612C49.9496 26.468 50.0736 26.348 50.2096 26.252C50.3536 26.148 50.5096 26.072 50.6776 26.024C50.8456 25.968 51.0136 25.94 51.1816 25.94C51.3656 25.94 51.5376 25.956 51.6976 25.988V27.344C51.5856 27.304 51.4776 27.276 51.3736 27.26C51.2696 27.244 51.1576 27.236 51.0376 27.236C50.8456 27.236 50.6616 27.276 50.4856 27.356C50.3176 27.436 50.1656 27.552 50.0296 27.704C49.9016 27.856 49.7976 28.048 49.7176 28.28C49.6376 28.512 49.5976 28.776 49.5976 29.072V32H48.2776V26ZM55.097 32.12C54.689 32.12 54.305 32.04 53.945 31.88C53.593 31.712 53.289 31.488 53.033 31.208C52.777 30.92 52.573 30.588 52.421 30.212C52.277 29.836 52.205 29.432 52.205 29C52.205 28.568 52.277 28.164 52.421 27.788C52.573 27.412 52.777 27.084 53.033 26.804C53.289 26.516 53.593 26.292 53.945 26.132C54.305 25.964 54.689 25.88 55.097 25.88C55.529 25.88 55.913 25.976 56.249 26.168C56.593 26.352 56.849 26.564 57.017 26.804V26H58.337V32H57.017V31.196C56.849 31.436 56.593 31.652 56.249 31.844C55.913 32.028 55.529 32.12 55.097 32.12ZM55.337 30.92C55.601 30.92 55.841 30.872 56.057 30.776C56.281 30.672 56.469 30.536 56.621 30.368C56.781 30.192 56.905 29.988 56.993 29.756C57.081 29.524 57.125 29.272 57.125 29C57.125 28.728 57.081 28.476 56.993 28.244C56.905 28.012 56.781 27.812 56.621 27.644C56.469 27.468 56.281 27.332 56.057 27.236C55.841 27.132 55.601 27.08 55.337 27.08C55.073 27.08 54.829 27.132 54.605 27.236C54.389 27.332 54.201 27.468 54.041 27.644C53.889 27.812 53.769 28.012 53.681 28.244C53.593 28.476 53.549 28.728 53.549 29C53.549 29.272 53.593 29.524 53.681 29.756C53.769 29.988 53.889 30.192 54.041 30.368C54.201 30.536 54.389 30.672 54.605 30.776C54.829 30.872 55.073 30.92 55.337 30.92ZM60.1253 26H61.4453V26.816C61.6293 26.512 61.8813 26.28 62.2013 26.12C62.5213 25.96 62.8773 25.88 63.2693 25.88C63.6133 25.88 63.9253 25.94 64.2053 26.06C64.4933 26.18 64.7373 26.348 64.9373 26.564C65.1373 26.78 65.2893 27.044 65.3933 27.356C65.5053 27.66 65.5613 28.004 65.5613 28.388V32H64.2413V28.604C64.2413 28.124 64.1293 27.752 63.9053 27.488C63.6813 27.216 63.3773 27.08 62.9933 27.08C62.5533 27.08 62.1853 27.248 61.8893 27.584C61.5933 27.912 61.4453 28.4 61.4453 29.048V32H60.1253V26ZM69.9863 32.12C69.5383 32.12 69.1183 32.04 68.7263 31.88C68.3423 31.72 68.0063 31.504 67.7183 31.232C67.4383 30.952 67.2183 30.624 67.0583 30.248C66.8983 29.864 66.8183 29.448 66.8183 29C66.8183 28.56 66.8983 28.148 67.0583 27.764C67.2183 27.38 67.4383 27.052 67.7183 26.78C68.0063 26.5 68.3423 26.28 68.7263 26.12C69.1183 25.96 69.5383 25.88 69.9863 25.88C70.6103 25.88 71.1663 26.032 71.6543 26.336C72.1503 26.632 72.5263 27.032 72.7823 27.536L71.6303 28.16C71.4863 27.856 71.2703 27.604 70.9823 27.404C70.7023 27.204 70.3703 27.104 69.9863 27.104C69.7223 27.104 69.4783 27.152 69.2543 27.248C69.0303 27.344 68.8343 27.48 68.6663 27.656C68.5063 27.824 68.3823 28.024 68.2943 28.256C68.2063 28.488 68.1623 28.736 68.1623 29C68.1623 29.264 68.2063 29.512 68.2943 29.744C68.3823 29.976 68.5063 30.18 68.6663 30.356C68.8343 30.524 69.0303 30.656 69.2543 30.752C69.4783 30.848 69.7223 30.896 69.9863 30.896C70.3703 30.896 70.7023 30.796 70.9823 30.596C71.2703 30.396 71.4863 30.144 71.6303 29.84L72.7823 30.464C72.5263 30.968 72.1503 31.372 71.6543 31.676C71.1663 31.972 70.6103 32.12 69.9863 32.12ZM76.7006 32.12C76.2446 32.12 75.8246 32.044 75.4406 31.892C75.0566 31.74 74.7246 31.528 74.4446 31.256C74.1726 30.976 73.9566 30.644 73.7966 30.26C73.6446 29.876 73.5686 29.456 73.5686 29C73.5686 28.56 73.6446 28.152 73.7966 27.776C73.9566 27.392 74.1726 27.06 74.4446 26.78C74.7246 26.5 75.0566 26.28 75.4406 26.12C75.8246 25.96 76.2446 25.88 76.7006 25.88C77.0926 25.88 77.4646 25.944 77.8166 26.072C78.1686 26.2 78.4766 26.392 78.7406 26.648C79.0046 26.896 79.2126 27.208 79.3646 27.584C79.5166 27.952 79.5926 28.376 79.5926 28.856C79.5926 28.92 79.5926 28.984 79.5926 29.048C79.5926 29.112 79.5886 29.192 79.5806 29.288H74.8646C74.8806 29.536 74.9366 29.76 75.0326 29.96C75.1366 30.16 75.2686 30.332 75.4286 30.476C75.5966 30.62 75.7886 30.732 76.0046 30.812C76.2286 30.884 76.4646 30.92 76.7126 30.92C77.1366 30.92 77.4886 30.836 77.7686 30.668C78.0486 30.492 78.2686 30.272 78.4286 30.008L79.4366 30.728C79.1646 31.16 78.7966 31.5 78.3326 31.748C77.8766 31.996 77.3326 32.12 76.7006 32.12ZM78.2606 28.328C78.1886 27.896 77.9966 27.568 77.6846 27.344C77.3806 27.112 77.0366 26.996 76.6526 26.996C76.4606 26.996 76.2686 27.024 76.0766 27.08C75.8926 27.136 75.7206 27.22 75.5606 27.332C75.4086 27.444 75.2766 27.584 75.1646 27.752C75.0526 27.912 74.9726 28.104 74.9246 28.328H78.2606ZM86.2337 32.12C85.8257 32.12 85.4417 32.04 85.0817 31.88C84.7297 31.712 84.4257 31.488 84.1697 31.208C83.9137 30.92 83.7097 30.588 83.5577 30.212C83.4137 29.836 83.3417 29.432 83.3417 29C83.3417 28.568 83.4137 28.164 83.5577 27.788C83.7097 27.412 83.9137 27.084 84.1697 26.804C84.4257 26.516 84.7297 26.292 85.0817 26.132C85.4417 25.964 85.8257 25.88 86.2337 25.88C86.6657 25.88 87.0497 25.976 87.3857 26.168C87.7297 26.352 87.9857 26.564 88.1537 26.804V26H89.4737V32H88.1537V31.196C87.9857 31.436 87.7297 31.652 87.3857 31.844C87.0497 32.028 86.6657 32.12 86.2337 32.12ZM86.4737 30.92C86.7377 30.92 86.9777 30.872 87.1937 30.776C87.4177 30.672 87.6057 30.536 87.7577 30.368C87.9177 30.192 88.0417 29.988 88.1297 29.756C88.2177 29.524 88.2617 29.272 88.2617 29C88.2617 28.728 88.2177 28.476 88.1297 28.244C88.0417 28.012 87.9177 27.812 87.7577 27.644C87.6057 27.468 87.4177 27.332 87.1937 27.236C86.9777 27.132 86.7377 27.08 86.4737 27.08C86.2097 27.08 85.9657 27.132 85.7417 27.236C85.5257 27.332 85.3377 27.468 85.1777 27.644C85.0257 27.812 84.9057 28.012 84.8177 28.244C84.7297 28.476 84.6857 28.728 84.6857 29C84.6857 29.272 84.7297 29.524 84.8177 29.756C84.9057 29.988 85.0257 30.192 85.1777 30.368C85.3377 30.536 85.5257 30.672 85.7417 30.776C85.9657 30.872 86.2097 30.92 86.4737 30.92ZM91.262 34.508V26H92.582V26.804C92.75 26.564 93.006 26.352 93.35 26.168C93.694 25.976 94.082 25.88 94.514 25.88C94.922 25.88 95.302 25.964 95.654 26.132C96.014 26.292 96.322 26.516 96.578 26.804C96.834 27.084 97.034 27.412 97.178 27.788C97.33 28.164 97.406 28.568 97.406 29C97.406 29.432 97.33 29.836 97.178 30.212C97.034 30.588 96.834 30.92 96.578 31.208C96.322 31.488 96.014 31.712 95.654 31.88C95.302 32.04 94.922 32.12 94.514 32.12C94.082 32.12 93.694 32.028 93.35 31.844C93.006 31.652 92.75 31.436 92.582 31.196V34.508H91.262ZM94.274 30.92C94.538 30.92 94.778 30.872 94.994 30.776C95.218 30.672 95.406 30.536 95.558 30.368C95.718 30.192 95.842 29.988 95.93 29.756C96.018 29.524 96.062 29.272 96.062 29C96.062 28.728 96.018 28.476 95.93 28.244C95.842 28.012 95.718 27.812 95.558 27.644C95.406 27.468 95.218 27.332 94.994 27.236C94.778 27.132 94.538 27.08 94.274 27.08C94.01 27.08 93.766 27.132 93.542 27.236C93.318 27.332 93.126 27.468 92.966 27.644C92.814 27.812 92.694 28.012 92.606 28.244C92.518 28.476 92.474 28.728 92.474 29C92.474 29.272 92.518 29.524 92.606 29.756C92.694 29.988 92.814 30.192 92.966 30.368C93.126 30.536 93.318 30.672 93.542 30.776C93.766 30.872 94.01 30.92 94.274 30.92ZM98.7503 34.508V26H100.07V26.804C100.238 26.564 100.494 26.352 100.838 26.168C101.182 25.976 101.57 25.88 102.002 25.88C102.41 25.88 102.79 25.964 103.142 26.132C103.502 26.292 103.81 26.516 104.066 26.804C104.322 27.084 104.522 27.412 104.666 27.788C104.818 28.164 104.894 28.568 104.894 29C104.894 29.432 104.818 29.836 104.666 30.212C104.522 30.588 104.322 30.92 104.066 31.208C103.81 31.488 103.502 31.712 103.142 31.88C102.79 32.04 102.41 32.12 102.002 32.12C101.57 32.12 101.182 32.028 100.838 31.844C100.494 31.652 100.238 31.436 100.07 31.196V34.508H98.7503ZM101.762 30.92C102.026 30.92 102.266 30.872 102.482 30.776C102.706 30.672 102.894 30.536 103.046 30.368C103.206 30.192 103.33 29.988 103.418 29.756C103.506 29.524 103.55 29.272 103.55 29C103.55 28.728 103.506 28.476 103.418 28.244C103.33 28.012 103.206 27.812 103.046 27.644C102.894 27.468 102.706 27.332 102.482 27.236C102.266 27.132 102.026 27.08 101.762 27.08C101.498 27.08 101.254 27.132 101.03 27.236C100.806 27.332 100.614 27.468 100.454 27.644C100.302 27.812 100.182 28.012 100.094 28.244C100.006 28.476 99.9623 28.728 99.9623 29C99.9623 29.272 100.006 29.524 100.094 29.756C100.182 29.988 100.302 30.192 100.454 30.368C100.614 30.536 100.806 30.672 101.03 30.776C101.254 30.872 101.498 30.92 101.762 30.92Z" fill="black" fill-opacity="0.88"/>
<g clip-path="url(#clip1_194_12214)">
<path d="M121.236 37.8269C121.236 37.8269 118.137 41.8207 113.856 38.9873C112.69 35.3428 115.067 32.9431 115.839 32.4023C116.915 34.5767 116.205 37.4101 116.205 37.4101C118.689 36.2779 121.241 37.8269 121.241 37.8269H121.236Z" fill="#474649"/>
<path d="M126.007 31.421C126.007 31.421 124.035 35.7528 119.495 34.091C117.783 31.0605 119.298 28.4073 120.07 27.6074C121.427 29.3368 121.393 31.9505 121.377 32.0631C123.399 30.5873 126.007 31.421 126.007 31.421Z" fill="#474649"/>
<path d="M128.921 24.5022C128.921 24.5022 128.194 28.9072 123.677 28.5073C121.547 26.2034 122.144 23.5277 122.803 22.418C124.347 23.6516 124.921 25.8879 124.944 26.1132C126.425 24.3839 128.921 24.5022 128.921 24.5022Z" fill="#474649"/>
<path d="M130.06 17.4164C130.06 17.4164 130.539 21.5567 126.382 22.3622C124.056 20.8131 123.802 18.4022 124.208 16.9883C125.796 17.7262 126.816 19.4612 126.934 19.7766C127.869 17.9403 130.06 17.4164 130.06 17.4164Z" fill="#474649"/>
<path d="M129.405 11.1191C129.405 11.1191 130.876 14.7074 127.355 16.4649C125.057 15.5861 124.155 13.6653 124.206 12.0148C125.705 12.3415 126.933 13.5188 127.203 13.8793C127.648 12.1049 129.405 11.1191 129.405 11.1191Z" fill="#474649"/>
<path d="M127.093 5.35742C127.093 5.35742 129.234 8.22462 126.496 10.613C124.401 10.23 123.122 8.91748 122.756 7.13182C124.068 7.17125 125.296 7.84158 125.73 8.20209C125.82 6.59105 127.093 5.35742 127.093 5.35742Z" fill="#474649"/>
<path d="M123.319 -0.000226366C123.319 -0.000226366 125.825 2.12342 123.871 4.82163C122.062 4.74277 120.665 4.05554 119.866 2.21355C120.964 2.09525 122.023 2.3769 122.626 2.68672C122.496 1.28973 123.319 -0.00585938 123.319 -0.00585938V-0.000226366Z" fill="#474649"/>
</g>
<defs>
<clipPath id="clip0_194_12214">
<rect width="16.5385" height="40" fill="white"/>
</clipPath>
<clipPath id="clip1_194_12214">
<rect width="16.5385" height="40" fill="white" transform="matrix(-1 0 0 1 130.077 0)"/>
</clipPath>
</defs>
</svg>
